/* XPM */
static char * closeufcs_xpm[] = {
"21 21 21 1",
" 	c #FBFCFF",
".	c #ECEDEF",
"+	c #C9CACB",
"@	c #C9C9CA",
"#	c #8F8F8F",
"$	c #A4A4A4",
"%	c #9C9C9C",
"&	c #7B7B7B",
"*	c #949494",
"=	c #7A7A7A",
"-	c #9B9B9B",
";	c #828282",
">	c #FFFFFF",
",	c #3E3E3E",
"'	c #5D5D5D",
")	c #959595",
"!	c #353535",
"~	c #939393",
"{	c #A2A2A2",
"]	c #A3A3A3",
"^	c #A5A6A6",
"                     ",
".....................",
"+++++@@++++++++++++++",
"#####################",
"$$$$$$$$$$$$$$$$$$$$$",
"$$$$$$$$$$$$$$$$$$$$$",
"$$$$$$$$$$$$$$$$$$$$$",
"$$$$$$$$%&&*=&-$$$$$$",
"$$$$$$$$;>>,>>;$$$$$$",
"$$$$$$$$%'>>>'-$$$$$$",
"$$$$$$$$$)!>!~$$$$$$$",
"$$$$$$$$%'>>>'-$$$$$$",
"$$$$$$$$;>>,>>;$$$$$$",
"$$$$$$$$%&&*=&-$$$$$$",
"$$$$$$$$$$$$$$$$$$$$$",
"$$$$$$$$$$$$$$$$$$$$$",
"#####################",
"{{{{{]{{{{{{{{{{{{{{{",
"^^^^^$$^^^^^^^^^^^^^^",
"+++++@@++++++++++++++",
"....................."};
