/* XPM */
static char * closepr_xpm[] = {
"21 21 31 1",
" 	c #FBFCFF",
".	c #F3F4F7",
"+	c #DDDEE0",
"@	c #DDDDDF",
"#	c #7685A9",
"$	c #8998BF",
"%	c #8A99C0",
"&	c #8D9BC1",
"*	c #8B9AC0",
"=	c #8D9CC1",
"-	c #94A1C5",
";	c #A8B3D0",
">	c #AAB5D1",
",	c #A2AECD",
"'	c #ABB5D1",
")	c #94A2C5",
"!	c #8C9AC1",
"~	c #A2ADCC",
"{	c #FFFFFF",
"]	c #D7DCE9",
"^	c #96A3C6",
"/	c #BEC6DC",
"(	c #97A4C7",
"_	c #8E9CC2",
":	c #DADFEB",
"<	c #A9B4D1",
"[	c #8F9DC2",
"}	c #A3A3A3",
"|	c #A4A4A4",
"1	c #B3B4B4",
"2	c #B3B3B3",
"                     ",
".....................",
"+++++@@++++++++++++++",
"#####################",
"$$$$$$$$$$$$$$$$$$$$$",
"$$$$$$$$$$$$$$$$$$$$$",
"$$$$$$$$%&&*=&%$$$$$$",
"$$$$$$$%-;>,';)%$$$$$",
"$$$$$$$!~{{]{{,!$$$$$",
"$$$$$$$%^/{{{/(%$$$$$",
"$$$$$$$$_;:{:<[$$$$$$",
"$$$$$$$%^/{{{/(%$$$$$",
"$$$$$$$!~{{]{{,!$$$$$",
"$$$$$$$%-;>,';)%$$$$$",
"$$$$$$$$%&&*=&%$$$$$$",
"$$$$$$$$$$$$$$$$$$$$$",
"#####################",
"}}}}}|}}}}}}}}}}}}}}}",
"111112211111111111111",
"+++++@@++++++++++++++",
"....................."};
