/* XPM */
static char * maxpr_xpm[] = {
"21 21 32 1",
" 	c #FBFCFF",
".	c #F3F4F7",
"+	c #DDDEE0",
"@	c #DDDDDF",
"#	c #7685A9",
"$	c #8998BF",
"%	c #8A99C0",
"&	c #8C9AC1",
"*	c #8B9AC0",
"=	c #96A4C6",
"-	c #A2AECD",
";	c #9AA7C8",
">	c #BDC5DB",
",	c #FFFFFF",
"'	c #BDC6DB",
")	c #9BA7C9",
"!	c #96A3C6",
"~	c #BCC5DB",
"{	c #97A4C7",
"]	c #A2ADCC",
"^	c #D6DBE9",
"/	c #94A1C5",
"(	c #A8B3D0",
"_	c #AAB5D1",
":	c #ABB5D1",
"<	c #94A2C5",
"[	c #8D9BC1",
"}	c #8D9CC1",
"|	c #A3A3A3",
"1	c #A4A4A4",
"2	c #B3B4B4",
"3	c #B3B3B3",
"                     ",
".....................",
"+++++@@++++++++++++++",
"#####################",
"$$$$$$$$$$$$$$$$$$$$$",
"$$$$$$$$$$$$$$$$$$$$$",
"$$$$$$$$$$%&%$$$$$$$$",
"$$$$$$$$$*=-=*$$$$$$$",
"$$$$$$$$*;>,')&$$$$$$",
"$$$$$$$%!~,,,>{%$$$$$",
"$$$$$$$&],,^,,-&$$$$$",
"$$$$$$$%/(_-:(<%$$$$$",
"$$$$$$$$%[[*}[%$$$$$$",
"$$$$$$$$$$$$$$$$$$$$$",
"$$$$$$$$$$$$$$$$$$$$$",
"$$$$$$$$$$$$$$$$$$$$$",
"#####################",
"|||||1|||||||||||||||",
"222223322222222222222",
"+++++@@++++++++++++++",
"....................."};
