/* XPM */
static char * menuiconpr_xpm[] = {
"21 21 34 1",
" 	c #FAFBFE",
".	c #F2F3F6",
"+	c #DDDDDF",
"@	c #DCDDDF",
"#	c #7685A9",
"$	c #8998BF",
"%	c #8A99C0",
"&	c #8D9BC1",
"*	c #919FC3",
"=	c #94A2C5",
"-	c #95A3C6",
";	c #95A2C5",
">	c #919FC4",
",	c #8C9BC1",
"'	c #97A4C7",
")	c #A7B2CF",
"!	c #B0BAD4",
"~	c #B2BCD5",
"{	c #97A5C7",
"]	c #8E9CC2",
"^	c #9FABCB",
"/	c #FFFFFF",
"(	c #8F9DC2",
"_	c #8D9CC1",
":	c #9BA7C9",
"<	c #AFB9D4",
"[	c #BBC4DA",
"}	c #BFC7DC",
"|	c #BCC4DB",
"1	c #9BA8C9",
"2	c #A3A3A3",
"3	c #A4A4A4",
"4	c #B3B3B4",
"5	c #B2B3B3",
"                     ",
".....................",
"+++++@@++++++++++++++",
"#####################",
"$$$$$$$$$$$$$$$$$$$$$",
"$$$$$$$$$%%%$$$$$$$$$",
"$$$$$$$&*=-;>&%$$$$$$",
"$$$$$$,')!~!){,$$$$$$",
"$$$$$$]^/////^($$$$$$",
"$$$$$$_:<[}|!1_$$$$$$",
"$$$$$$_:<[}|!1_$$$$$$",
"$$$$$$]^/////^($$$$$$",
"$$$$$$,')!~!){,$$$$$$",
"$$$$$$$&*=-;>&%$$$$$$",
"$$$$$$$$$%%%$$$$$$$$$",
"$$$$$$$$$$$$$$$$$$$$$",
"#####################",
"222223222222222222222",
"444445544444444444444",
"+++++@@++++++++++++++",
"....................."};
