/* XPM */
static char * menuiconufcs_xpm[] = {
"21 21 17 1",
" 	c #FAFBFE",
".	c #F2F3F6",
"+	c #DDDDDF",
"@	c #DCDDDF",
"#	c #8F8F8F",
"$	c #A4A4A4",
"%	c #9C9C9C",
"&	c #7B7B7B",
"*	c #747474",
"=	c #727272",
"-	c #7A7A7A",
";	c #9B9B9B",
">	c #828282",
",	c #FFFFFF",
"'	c #A3A3A3",
")	c #B3B3B4",
"!	c #B2B3B3",
"                     ",
".....................",
"+++++@@++++++++++++++",
"#####################",
"$$$$$$$$$$$$$$$$$$$$$",
"$$$$$$$$$$$$$$$$$$$$$",
"$$$$$$$$$$$$$$$$$$$$$",
"$$$$$$$%&*==-;$$$$$$$",
"$$$$$$$>,,,,,>$$$$$$$",
"$$$$$$$%&*==-;$$$$$$$",
"$$$$$$$%&*==-;$$$$$$$",
"$$$$$$$>,,,,,>$$$$$$$",
"$$$$$$$%&*==-;$$$$$$$",
"$$$$$$$$$$$$$$$$$$$$$",
"$$$$$$$$$$$$$$$$$$$$$",
"$$$$$$$$$$$$$$$$$$$$$",
"#####################",
"'''''$'''''''''''''''",
")))))!!))))))))))))))",
"+++++@@++++++++++++++",
"....................."};
