/* XPM */
static char * minfcs_xpm[] = {
"21 21 29 1",
" 	c #FBFCFF",
".	c #F7F8FB",
"+	c #F3F4F7",
"@	c #F0F1F4",
"#	c #E6E7E9",
"$	c #E0E1E3",
"%	c #DDDDDF",
"&	c #DDDEE0",
"*	c #E9EAEC",
"=	c #7685A9",
"-	c #7F8DB3",
";	c #8998BF",
">	c #8391B6",
",	c #677290",
"'	c #7C89AC",
")	c #66718E",
"!	c #8190B5",
"~	c #6D7897",
"{	c #FFFFFF",
"]	c #343A49",
"^	c #4E566D",
"/	c #BEBEBF",
"(	c #D2D3D4",
"_	c #B5B5B6",
":	c #A7A7A7",
"<	c #A3A3A3",
"[	c #A4A4A4",
"}	c #B3B3B3",
"|	c #B3B4B4",
"                     ",
"  ..+++++++++++++++++",
" .@#$%%&&&&&&&&&&&&&&",
" *===================",
" =-;;;;;;;;;;;;;;;;;;",
" =;;;;;;;;;;;;;;;;;;;",
" =;;;;;;;;;;;;;;;;;;;",
" =;;;;;;;;;;;;;;;;;;;",
" =;;;;;;;;;;;;;;;;;;;",
" =;;;;;;;>,,'),!;;;;;",
" =;;;;;;;~{{]{{~;;;;;",
" =;;;;;;;>^{{{^!;;;;;",
" =;;;;;;;;>^{^!;;;;;;",
" =;;;;;;;;;>~>;;;;;;;",
" =;;;;;;;;;;;;;;;;;;;",
" =-;;;;;;;;;;;;;;;;;;",
" /===================",
" (_:<[<<<<<<<<<<<<<<<",
" *(/_}}||||||||||||||",
" .@#$%%&&&&&&&&&&&&&&",
"  ..+++++++++++++++++"};
