/* XPM */
static char * minpr_xpm[] = {
"21 21 42 1",
" 	c #FBFCFF",
".	c #F7F8FB",
"+	c #F3F4F7",
"@	c #F0F1F4",
"#	c #E6E7E9",
"$	c #E0E1E3",
"%	c #DDDDDF",
"&	c #DDDEE0",
"*	c #E9EAEC",
"=	c #7685A9",
"-	c #7F8DB3",
";	c #8998BF",
">	c #8A99C0",
",	c #8D9BC1",
"'	c #8B9AC0",
")	c #8D9CC1",
"!	c #94A1C5",
"~	c #A8B3D0",
"{	c #AAB5D1",
"]	c #A2AECD",
"^	c #ABB5D1",
"/	c #94A2C5",
"(	c #8C9AC1",
"_	c #A2ADCC",
":	c #FFFFFF",
"<	c #D6DBE9",
"[	c #96A3C6",
"}	c #BCC5DB",
"|	c #BDC5DB",
"1	c #97A4C7",
"2	c #9AA7C8",
"3	c #BDC6DB",
"4	c #9BA7C9",
"5	c #96A4C6",
"6	c #BEBEBF",
"7	c #D2D3D4",
"8	c #B5B5B6",
"9	c #A7A7A7",
"0	c #A3A3A3",
"a	c #A4A4A4",
"b	c #B3B3B3",
"c	c #B3B4B4",
"                     ",
"  ..+++++++++++++++++",
" .@#$%%&&&&&&&&&&&&&&",
" *===================",
" =-;;;;;;;;;;;;;;;;;;",
" =;;;;;;;;;;;;;;;;;;;",
" =;;;;;;;;;;;;;;;;;;;",
" =;;;;;;;;;;;;;;;;;;;",
" =;;;;;;;>,,'),>;;;;;",
" =;;;;;;>!~{]^~/>;;;;",
" =;;;;;;(_::<::](;;;;",
" =;;;;;;>[}:::|1>;;;;",
" =;;;;;;;'2|:34(;;;;;",
" =;;;;;;;;'5]5';;;;;;",
" =;;;;;;;;;>(>;;;;;;;",
" =-;;;;;;;;;;;;;;;;;;",
" 6===================",
" 7890a000000000000000",
" *768bbcccccccccccccc",
" .@#$%%&&&&&&&&&&&&&&",
"  ..+++++++++++++++++"};
