/* XPM */
static char * stickufcs_xpm[] = {
"21 21 29 1",
" 	c #FBFCFF",
".	c #F3F4F7",
"+	c #F7F8FB",
"@	c #DDDEE0",
"#	c #DDDDDF",
"$	c #E0E1E3",
"%	c #E6E7E9",
"&	c #F0F1F4",
"*	c #8F8F8F",
"=	c #E9EAEC",
"-	c #A4A4A4",
";	c #999999",
">	c #9C9C9C",
",	c #7B7B7B",
"'	c #747474",
")	c #727272",
"!	c #7A7A7A",
"~	c #9B9B9B",
"{	c #646464",
"]	c #FFFFFF",
"^	c #575757",
"/	c #565656",
"(	c #BEBEBF",
"_	c #A3A3A3",
":	c #A7A7A7",
"<	c #B5B5B6",
"[	c #D2D3D4",
"}	c #B3B4B4",
"|	c #B3B3B3",
"                     ",
".................++  ",
"@@@@@@@@@@@@@@##$%&+ ",
"*******************= ",
"------------------;* ",
"-------------------* ",
"-------->,')!~-----* ",
"------->{]]]]{~----* ",
"-------,]^))/]!----* ",
"-------']'--']'----* ",
"-------)])--)])----* ",
"-------,]^))/]!----* ",
"------->{]]]]{~----* ",
"-------->,')!~-----* ",
"-------------------* ",
"------------------;* ",
"*******************( ",
"_______________-_:<[ ",
"}}}}}}}}}}}}}}||<([= ",
"@@@@@@@@@@@@@@##$%&+ ",
".................++  "};
