/* XPM */
static char * stuckufcs_xpm[] = {
"21 21 33 1",
" 	c #FBFCFF",
".	c #F3F4F7",
"+	c #F7F8FB",
"@	c #DDDEE0",
"#	c #DDDDDF",
"$	c #E0E1E3",
"%	c #E6E7E9",
"&	c #F0F1F4",
"*	c #8F8F8F",
"=	c #E9EAEC",
"-	c #A4A4A4",
";	c #A5A5A5",
">	c #999999",
",	c #A7A7A7",
"'	c #ABABAB",
")	c #ADADAD",
"!	c #A9A9A9",
"~	c #B2B2B2",
"{	c #BDBDBD",
"]	c #C2C2C2",
"^	c #C3C3C3",
"/	c #B3B3B3",
"(	c #C4C4C4",
"_	c #FFFFFF",
":	c #D2D2D2",
"<	c #D0D0D0",
"[	c #D1D1D1",
"}	c #E7E7E7",
"|	c #BEBEBF",
"1	c #A3A3A3",
"2	c #B5B5B6",
"3	c #D2D3D4",
"4	c #B3B4B4",
"                     ",
".................++  ",
"@@@@@@@@@@@@@@##$%&+ ",
"*******************= ",
"----------;;------>* ",
"-------;,'))',;----* ",
"------;!~{]^{/!;---* ",
"------,/(____(/,---* ",
"-----;'{_:<<[_{';--* ",
"-----;)]_<}}<_^);--* ",
"-----;)]_<}}<_^);--* ",
"-----;'{_:<<:_{';--* ",
"------,/(____(/,---* ",
"------;!~{]^{/!;---* ",
"-------;,'))',;----* ",
"----------;;------>* ",
"*******************| ",
"111111111111111-1,23 ",
"44444444444444//2|3= ",
"@@@@@@@@@@@@@@##$%&+ ",
".................++  "};
