/* XPM */
static char * stuckfcs_xpm[] = {
"21 21 39 1",
" 	c #FBFCFF",
".	c #F3F4F7",
"+	c #F7F8FB",
"@	c #DDDEE0",
"#	c #DDDDDF",
"$	c #E0E1E3",
"%	c #E6E7E9",
"&	c #F0F1F4",
"*	c #7685A9",
"=	c #E9EAEC",
"-	c #8998BF",
";	c #8A99C0",
">	c #7F8DB3",
",	c #8D9CC1",
"'	c #92A0C4",
")	c #94A2C5",
"!	c #8F9EC3",
"~	c #9CA8C9",
"{	c #A9B4D1",
"]	c #B0BAD4",
"^	c #B1BBD5",
"/	c #AAB5D1",
"(	c #9CA9C9",
"_	c #B3BDD6",
":	c #FFFFFF",
"<	c #C5CCDF",
"[	c #C2CADE",
"}	c #C4CBDF",
"|	c #E1E4EE",
"1	c #95A2C5",
"2	c #C5CDE0",
"3	c #BEBEBF",
"4	c #A3A3A3",
"5	c #A4A4A4",
"6	c #A7A7A7",
"7	c #B5B5B6",
"8	c #D2D3D4",
"9	c #B3B4B4",
"0	c #B3B3B3",
"                     ",
".................++  ",
"@@@@@@@@@@@@@@##$%&+ ",
"*******************= ",
"----------;;------>* ",
"-------;,'))',;----* ",
"------;!~{]^/(!;---* ",
"------,(_::::_(,---* ",
"-----;'{:<[[}:/';--* ",
"-----;)]:[||[:^1;--* ",
"-----;)]:[||[:^1;--* ",
"-----;'{:<[[2:/';--* ",
"------,(_::::_(,---* ",
"------;!~{]^/(!;---* ",
"-------;,'))',;----* ",
"----------;;------>* ",
"*******************3 ",
"44444444444444454678 ",
"9999999999999900738= ",
"@@@@@@@@@@@@@@##$%&+ ",
".................++  "};
