/* XPM */
static char * unshadepr_xpm[] = {
"21 21 10 1",
" 	c #FBFCFF",
".	c #FAFBFE",
"+	c #F6F7FA",
"@	c #F1F2F5",
"#	c #F0F1F4",
"$	c #DCDCDF",
"%	c #9B9B9D",
"&	c #DADADD",
"*	c #000000",
"=	c #99999B",
"                     ",
"                     ",
"                     ",
"                     ",
"                     ",
"                     ",
"                     ",
"                     ",
"        .+@#+.       ",
"        +$%%&+       ",
"       .@%**=#.      ",
"       .@%**=#.      ",
"        +$%%&+       ",
"        .+@#+.       ",
"                     ",
"                     ",
"                     ",
"                     ",
"                     ",
"                     ",
"                     "};
