/* XPM */
static char * menuiconfcs_xpm[] = {
"25 25 71 1",
" 	c #F3F3F3",
".	c #F2F2F2",
"+	c #F1F1F1",
"@	c #ECEBE7",
"#	c #F1F0EB",
"$	c #EFEFEF",
"%	c #EAE9E5",
"&	c #A6A6A6",
"*	c #8D8D8D",
"=	c #8E8E8E",
"-	c #A7A7A7",
";	c #EFEEE8",
">	c #EEEEEE",
",	c #ECECEC",
"'	c #E7E7E3",
")	c #8C8C8C",
"!	c #EDEDEE",
"~	c #EDEDED",
"{	c #EBEBEC",
"]	c #EBEBEB",
"^	c #EAEAEA",
"/	c #8B8B8B",
"(	c #ECEBE6",
"_	c #E6E5E1",
":	c #ECECED",
"<	c #EBEAEB",
"[	c #E9E9E9",
"}	c #EBEAE5",
"|	c #EDECEC",
"1	c #ECEBEC",
"2	c #EAEBEB",
"3	c #EAEAE9",
"4	c #E9E8E8",
"5	c #EAE9EA",
"6	c #E8E9E8",
"7	c #E8E8E8",
"8	c #E6E6E2",
"9	c #ECEDED",
"0	c #767676",
"a	c #767675",
"b	c #757575",
"c	c #ECEDEC",
"d	c #E9E9EA",
"e	c #EDECE7",
"f	c #757576",
"g	c #EDECED",
"h	c #ECEBEB",
"i	c #E9EAE9",
"j	c #E9E9E8",
"k	c #E8E7E3",
"l	c #777677",
"m	c #767575",
"n	c #EEEDE8",
"o	c #EBECEC",
"p	c #EBEAEA",
"q	c #F0EFE9",
"r	c #F0F0F0",
"s	c #EBEAE6",
"t	c #EEEFEF",
"u	c #777777",
"v	c #777676",
"w	c #757675",
"x	c #F0EFEA",
"y	c #EEEDED",
"z	c #8F8F8F",
"A	c #767776",
"B	c #EEEDEE",
"C	c #EDEEEE",
"D	c #EBECEB",
"E	c #EDEDEC",
"F	c #A8A8A8",
"                         ",
".........................",
"++@@@@@@@@@@@@@@@@@@@@#++",
"$$%&****====**===***=-;>$",
",,')>>!~~~~,,{],]^^^^/(]]",
"^^_/~~~:,{]]]<^^^[[[[/}^^",
"^^_/~~|,1]]]2^^^3[[[4/}^^",
"^^_/~,,,]]]]^^^5[[[67/}^^",
"]]8/~90000000abbbbb[7/(]]",
",,')~~c,]]1]]]]^^d[[7/e]]",
",,')~~0000000fbbbbb[4)e,,",
",,')9g,,h]]]2^^i[[[j7)e,,",
"~~k)~~l000000mbbbbb[[)n~~",
"$$%=>>>~~g,,,o]]]p^^[=q$$",
"rrs=t>uuuuuv00000wb^^=xrr",
"rrs=>>y~~~,,,1]]]^^^^=xrr",
"++@z>>uuuuuA0000000]]z#++",
"++@z>>B~~~c,,]]]]]]]]z#++",
"++@z>C~~~:,,D]]]]]]]]z#++",
"++@z~~~~E,,]]]]]]]]]]z#++",
"rrsF=================Fxrr",
"rrsxxxxxxxxxxxxxxxxxxxxrr",
"rrrrr$$rrrr$$$r$$rrrrr$$$",
",,,,,]],,,,]]],]],,,,,]]]",
"7777777777777777777777777"};
