/* XPM */
static char * shadefcs_xpm[] = {
"25 25 68 1",
" 	c #F3F3F3",
".	c #F2F2F2",
"+	c #F1F1F1",
"@	c #ECEBE7",
"#	c #F1F0EB",
"$	c #EFEFEF",
"%	c #EAE9E5",
"&	c #A6A6A6",
"*	c #8D8D8D",
"=	c #8E8E8E",
"-	c #A7A7A7",
";	c #EFEEE8",
">	c #EEEEEE",
",	c #ECECEC",
"'	c #E7E7E3",
")	c #8C8C8C",
"!	c #EDEDEE",
"~	c #EDEDED",
"{	c #EBEBEC",
"]	c #EBEBEB",
"^	c #EAEAEA",
"/	c #8B8B8B",
"(	c #ECEBE6",
"_	c #E6E5E1",
":	c #ECECED",
"<	c #EBEAEB",
"[	c #E9E9E9",
"}	c #EBEAE5",
"|	c #EDECEC",
"1	c #ECEBEC",
"2	c #EAEBEB",
"3	c #EAEAE9",
"4	c #E9E8E8",
"5	c #767676",
"6	c #757575",
"7	c #E8E9E8",
"8	c #E8E8E8",
"9	c #E6E6E2",
"0	c #ECEDED",
"a	c #EBECEC",
"b	c #EBEBEA",
"c	c #E9EAEA",
"d	c #767776",
"e	c #EDECE7",
"f	c #EAEAEB",
"g	c #EDECED",
"h	c #ECEBEB",
"i	c #E9EAE9",
"j	c #E9E9E8",
"k	c #E8E7E3",
"l	c #EBEAEA",
"m	c #EEEDE8",
"n	c #F0EFE9",
"o	c #F0F0F0",
"p	c #EBEAE6",
"q	c #EEEFEF",
"r	c #EEEDED",
"s	c #777777",
"t	c #777676",
"u	c #EAEBEA",
"v	c #F0EFEA",
"w	c #8F8F8F",
"x	c #ECEDEC",
"y	c #EEEDEE",
"z	c #EDEEEE",
"A	c #EBECEB",
"B	c #EDEDEC",
"C	c #A8A8A8",
"                         ",
".........................",
"++@@@@@@@@@@@@@@@@@@@@#++",
"$$%&****====**===***=-;>$",
",,')>>!~~~~,,{],]^^^^/(]]",
"^^_/~~~:,{]]]<^^^[[[[/}^^",
"^^_/~~|,1]]]2^^^3[[[4/}^^",
"^^_/~,555555666666678/}^^",
"]]9/~05,,a]]]b^^c[6[8/(]]",
",,')~~d555555556666[8/e]]",
",,')~~,,,,]]]f^^3[[[4)e,,",
",,')0g,,h]]]2^^i[[[j8)e,,",
"~~k)~~g,,,{]5l^^3[[[[)m~~",
"$$%=>>>~~g,555]]]l^^[=n$$",
"oop=q>>r~~st555]]u^^^=voo",
"oop=>>r~~s555555]^^^^=voo",
"++@w>>>!~~~x,,1]]]]]]w#++",
"++@w>>y~~~x,,]]]]]]]]w#++",
"++@w>z~~~:,,A]]]]]]]]w#++",
"++@w~~~~B,,]]]]]]]]]]w#++",
"oopC=================Cvoo",
"oopvvvvvvvvvvvvvvvvvvvvoo",
"ooooo$$oooo$$$o$$ooooo$$$",
",,,,,]],,,,]]],]],,,,,]]]",
"8888888888888888888888888"};
