/* XPM */
static char * stuckfcs_xpm[] = {
"25 25 69 1",
" 	c #F3F3F3",
".	c #F2F2F2",
"+	c #F1F1F1",
"@	c #ECEBE7",
"#	c #F1F0EB",
"$	c #EFEFEF",
"%	c #EAE9E5",
"&	c #A6A6A6",
"*	c #8D8D8D",
"=	c #8E8E8E",
"-	c #A7A7A7",
";	c #EFEEE8",
">	c #EEEEEE",
",	c #ECECEC",
"'	c #E7E7E3",
")	c #8C8C8C",
"!	c #EDEDEE",
"~	c #EDEDED",
"{	c #EBEBEC",
"]	c #EBEBEB",
"^	c #EAEAEA",
"/	c #8B8B8B",
"(	c #ECEBE6",
"_	c #E6E5E1",
":	c #ECECED",
"<	c #EBEAEB",
"[	c #E9E9E9",
"}	c #EBEAE5",
"|	c #EDECEC",
"1	c #ECEBEC",
"2	c #EAEBEB",
"3	c #EAEAE9",
"4	c #E9E8E8",
"5	c #EAE9EA",
"6	c #757575",
"7	c #E8E9E8",
"8	c #E8E8E8",
"9	c #E6E6E2",
"0	c #ECEDED",
"a	c #EBECEC",
"b	c #EBEBEA",
"c	c #ECEDEC",
"d	c #EDECE7",
"e	c #EAEAEB",
"f	c #EDECED",
"g	c #767676",
"h	c #ECEBEB",
"i	c #E9E9E8",
"j	c #E8E7E3",
"k	c #767575",
"l	c #EEEDE8",
"m	c #777777",
"n	c #777677",
"o	c #EBEAEA",
"p	c #F0EFE9",
"q	c #F0F0F0",
"r	c #EBEAE6",
"s	c #EEEFEF",
"t	c #EEEDED",
"u	c #777676",
"v	c #EAEBEA",
"w	c #F0EFEA",
"x	c #8F8F8F",
"y	c #767776",
"z	c #EEEDEE",
"A	c #EDEEEE",
"B	c #EBECEB",
"C	c #EDEDEC",
"D	c #A8A8A8",
"                         ",
".........................",
"++@@@@@@@@@@@@@@@@@@@@#++",
"$$%&****====**===***=-;>$",
",,')>>!~~~~,,{],]^^^^/(]]",
"^^_/~~~:,{]]]<^^^[[[[/}^^",
"^^_/~~|,1]]]2^^^3[[[4/}^^",
"^^_/~,,,]]]]^^^5[6[78/}^^",
"]]9/~0,,,a]]]b^^666[8/(]]",
",,')~~c,]]1]]]]666[[8/d]]",
",,')~~,,,,]]]e666[[[4)d,,",
",,')0f,gh]]]2666[[[i8)d,,",
"~~j)~~fgg,{]gk6^3[[[[)l~~",
"$$%=>>>mmn,ggg]]]o^^[=p$$",
"qqr=s>>tmmmug,,]]v^^^=wqq",
"qqr=>>t~~mgg,1]]]^^^^=wqq",
"++@x>>>!~~my,,1]]]]]]x#++",
"++@x>>z~~~yg,]]]]]]]]x#++",
"++@x>A~~~:,,B]]]]]]]]x#++",
"++@x~~~~C,,]]]]]]]]]]x#++",
"qqrD=================Dwqq",
"qqrwwwwwwwwwwwwwwwwwwwwqq",
"qqqqq$$qqqq$$$q$$qqqqq$$$",
",,,,,]],,,,]]],]],,,,,]]]",
"8888888888888888888888888"};
