/* XPM */
static char * closeufcs_xpm[] = {
"21 21 31 1",
" 	c #6E6E6E",
".	c #565656",
"+	c #535353",
"@	c #545454",
"#	c #555555",
"$	c #515151",
"%	c #585858",
"&	c #5B5B5B",
"*	c #5A5A5A",
"=	c #5C5C5C",
"-	c #5B5A5A",
";	c #4D4D4D",
">	c #505050",
",	c #575757",
"'	c #595959",
")	c #575758",
"!	c #4E4E4E",
"~	c #5D5D5D",
"{	c #5E5D5E",
"]	c #5E5E5E",
"^	c #4A4A4A",
"/	c #4C4C4C",
"(	c #5F5F5F",
"_	c #434343",
":	c #444444",
"<	c #4B4B4B",
"[	c #555455",
"}	c #4C4D4C",
"|	c #464646",
"1	c #474747",
"2	c #484848",
"                     ",
".....................",
".....................",
".....................",
"+++++++++++++++++++++",
"+++++++++@#@+++++++++",
"$$$$$$$$+%&%+$$$$$$$$",
"$$$$$$$@*===-@$$$$$$$",
";;;;;;>,'****)>;;;;;;",
";;;;;!#*~~{]]~.!;;;;;",
"^^^^^/.&~~]](]%;^^^^^",
"_____:<[,%''',}:_____",
"______|$%=~~*$|______",
"_______1+&]=+2_______",
"________1!@!1________",
"_________:|:_________",
"_____________________",
"_____________________",
"_____________________",
"_____________________",
"_____________________"};
