/* XPM */
static char * closefcs_xpm[] = {
"21 21 111 2",
"  	c #858585",
". 	c #838383",
"+ 	c #828282",
"@ 	c #808080",
"# 	c #7E7E7E",
"$ 	c #7D7D7D",
"% 	c #7C7C7C",
"& 	c #696969",
"* 	c #686868",
"= 	c #666666",
"- 	c #636363",
"; 	c #606060",
"> 	c #5B5B5B",
", 	c #585858",
"' 	c #565656",
") 	c #656565",
"! 	c #616161",
"~ 	c #555555",
"{ 	c #4F4F4F",
"] 	c #4C4C4C",
"^ 	c #4A4A4A",
"/ 	c #494949",
"( 	c #515151",
"_ 	c #393939",
": 	c #242424",
"< 	c #1C1C1C",
"[ 	c #1B1B1B",
"} 	c #626262",
"| 	c #5D5D5D",
"1 	c #4B4B4B",
"2 	c #414141",
"3 	c #1E1E1E",
"4 	c #2E2E2E",
"5 	c #333333",
"6 	c #333434",
"7 	c #343434",
"8 	c #2F2F2F",
"9 	c #1F1F1F",
"0 	c #5F5F5F",
"a 	c #575757",
"b 	c #4D4D4D",
"c 	c #191919",
"d 	c #2A2A2A",
"e 	c #313131",
"f 	c #2C2C2C",
"g 	c #292A2A",
"h 	c #2D2D2D",
"i 	c #383838",
"j 	c #595959",
"k 	c #444444",
"l 	c #292929",
"m 	c #363636",
"n 	c #313031",
"o 	c #2B2B2B",
"p 	c #282828",
"q 	c #282928",
"r 	c #2A2B2A",
"s 	c #313332",
"t 	c #3B3B3B",
"u 	c #2E2D2D",
"v 	c #343534",
"w 	c #303030",
"x 	c #2B2C2B",
"y 	c #3D3D3E",
"z 	c #212121",
"A 	c #202020",
"B 	c #343334",
"C 	c #323333",
"D 	c #313232",
"E 	c #3D3D3D",
"F 	c #353535",
"G 	c #424242",
"H 	c #171717",
"I 	c #373737",
"J 	c #3C3C3B",
"K 	c #3B3A3A",
"L 	c #3A3A3A",
"M 	c #3A3B3A",
"N 	c #3C3C3C",
"O 	c #404040",
"P 	c #525252",
"Q 	c #3F3F3F",
"R 	c #151515",
"S 	c #403F40",
"T 	c #3E3E3E",
"U 	c #444545",
"V 	c #434343",
"W 	c #131313",
"X 	c #3A393A",
"Y 	c #444445",
"Z 	c #454545",
"` 	c #454544",
" .	c #1A1A1A",
"..	c #484849",
"+.	c #4B4B4A",
"@.	c #484848",
"#.	c #474747",
"$.	c #464646",
"%.	c #464848",
"&.	c #494948",
"*.	c #4E4E4E",
"=.	c #4D4D4E",
"-.	c #494849",
";.	c #161616",
">.	c #505050",
",.	c #4E4F4E",
"'.	c #121212",
").	c #464545",
"!.	c #4A4B4A",
"~.	c #4D4E4D",
"{.	c #4F4E4E",
"        . + @ # $ % % % $ # @ + .         ",
"& & & * = - ; > , ' ' ' , > ; - = * & & & ",
"& & * ) ! > ~ { ] ^ / ^ ] { ~ > ! ) * & & ",
"& * ) ; , ( / _ : < [ < : _ / ( , ; ) * & ",
") } | ~ 1 2 3 3 4 5 6 7 8 9 3 2 1 ~ | } ) ",
"- 0 a b 2 c d 7 e f g h 7 i f c 2 b a 0 - ",
"0 j { k < l m n o l p q r s t u < k { j 0 ",
"| ~ ^ m 3 7 v w 4 4 h h x 4 m y z m ^ ~ | ",
", { k A 4 i m 7 7 7 B C D e 7 E F A k { , ",
", b G H I J K L M _ _ i I m I N O H G b , ",
"P / Q R N S O O O Q T T E N t T U R Q / P ",
"1 V _ W X G Y Z ` Z k V V G 2 G V W _ V 1 ",
"] k L  .w G ..+.^ ^ / ..@.#.$.%.i  .L k ] ",
"] $.E f < O &.b { { *.b =.] ^ -.A f E $.] ",
"*./ 2 i ;.h Z 1 { >.>.>.>.,.1 5 ;.i 2 / *.",
"{ ] $.T 5 '.8 ).!.~.{ {.b 1 7 '.5 T $.] { ",
"( *.1 k N 5 ;.9 i $.^ #.N A ;.5 N k 1 *.( ",
"( >.*.^ k T i f  .W '.W  .f i T k ^ *.>.( ",
"( ( >.*.1 $.2 E L _ i _ L E 2 $.1 *.>.( ( ",
"( ( ( >.*.] / $.k V G V k $./ ] *.>.( ( ( ",
"( ( ( ( ( { *.] ] 1 1 1 ] ] *.{ ( ( ( ( ( "};
