/* XPM */
static char * maxpr_xpm[] = {
"21 21 118 2",
"  	c #858585",
". 	c #838383",
"+ 	c #828282",
"@ 	c #808080",
"# 	c #7E7E7E",
"$ 	c #7D7D7D",
"% 	c #7C7C7C",
"& 	c #696969",
"* 	c #686868",
"= 	c #666666",
"- 	c #636363",
"; 	c #606060",
"> 	c #5B5B5B",
", 	c #585858",
"' 	c #565656",
") 	c #656565",
"! 	c #616161",
"~ 	c #555555",
"{ 	c #4F4F4F",
"] 	c #4C4C4C",
"^ 	c #4A4A4A",
"/ 	c #494949",
"( 	c #515151",
"_ 	c #2F2F2F",
": 	c #181818",
"< 	c #121212",
"[ 	c #111111",
"} 	c #626262",
"| 	c #5D5D5D",
"1 	c #4B4B4B",
"2 	c #3D3D3D",
"3 	c #161616",
"4 	c #171717",
"5 	c #232323",
"6 	c #282828",
"7 	c #282929",
"8 	c #242424",
"9 	c #5F5F5F",
"0 	c #575757",
"a 	c #4D4D4D",
"b 	c #131313",
"c 	c #212121",
"d 	c #2B2B2B",
"e 	c #2A2A2A",
"f 	c #252626",
"g 	c #292929",
"h 	c #2D2D2D",
"i 	c #2E2E2E",
"j 	c #222222",
"k 	c #595959",
"l 	c #444444",
"m 	c #151515",
"n 	c #202020",
"o 	c #2C2B2C",
"p 	c #282928",
"q 	c #2C2E2D",
"r 	c #313131",
"s 	c #242323",
"t 	c #2C2C2C",
"u 	c #2F302F",
"v 	c #252525",
"w 	c #292928",
"x 	c #323233",
"y 	c #191919",
"z 	c #303030",
"A 	c #323232",
"B 	c #2E2E2F",
"C 	c #353535",
"D 	c #424242",
"E 	c #0F0F0F",
"F 	c #353635",
"G 	c #343535",
"H 	c #313031",
"I 	c #323132",
"J 	c #333333",
"K 	c #363636",
"L 	c #525252",
"M 	c #3F3F3F",
"N 	c #0D0D0D",
"O 	c #393939",
"P 	c #383838",
"Q 	c #373637",
"R 	c #373737",
"S 	c #3A3A3A",
"T 	c #393A39",
"U 	c #353636",
"V 	c #434343",
"W 	c #0C0C0C",
"X 	c #2D2C2D",
"Y 	c #3B3B3B",
"Z 	c #3D3D3E",
"` 	c #3E3D3E",
" .	c #3F3F3E",
"..	c #404040",
"+.	c #414141",
"@.	c #3D3E3D",
"#.	c #343434",
"$.	c #424243",
"%.	c #444443",
"&.	c #454545",
"*.	c #474747",
"=.	c #484848",
"-.	c #3C3E3E",
";.	c #464646",
">.	c #424241",
",.	c #4C4D4D",
"'.	c #49494A",
").	c #3C3B3C",
"!.	c #4E4E4E",
"~.	c #101010",
"{.	c #454645",
"].	c #3E3E3E",
"^.	c #0E0E0E",
"/.	c #444544",
"(.	c #464545",
"_.	c #3C3C3C",
":.	c #505050",
"<.	c #0B0B0B",
"        . + @ # $ % % % $ # @ + .         ",
"& & & * = - ; > , ' ' ' , > ; - = * & & & ",
"& & * ) ! > ~ { ] ^ / ^ ] { ~ > ! ) * & & ",
"& * ) ; , ( / _ : < [ < : _ / ( , ; ) * & ",
") } | ~ 1 2 3 4 5 6 7 6 8 : 3 2 1 ~ | } ) ",
"- 9 0 a 2 b c d e 6 f g h i j b 2 a 0 9 - ",
"9 k { l m n h o g 6 6 6 p q r s m l { k 9 ",
"| ~ ^ t 4 d u h e v 8 v w d r x y t ^ ~ | ",
", { l m 5 z A i e w g g d B z C 6 m l { , ",
", a D E d F G z z z H I r J C K A E D a , ",
"L / M N _ O P Q R P P O S S T O U N M / L ",
"1 V O W X Y Z `  ...+.+.+.+.@.Y #.W O V 1 ",
"] l S [ v O $.%.&.*.=.=.*.V +.-.d [ S l ] ",
"] ;.2 8 m #.>.=./ ] a ,.'.*.V ).: 8 2 ;.] ",
"!./ +.P ~.5 O V / / ^ / ^ {.].6 ~.P +./ !.",
"{ ] ;.].z ^.8 O ../.*.(.D 2 6 ^.z ].;.] { ",
"( !.1 l _.z ~.: d K S R i : ~.z _.l 1 !.( ",
"( :.!.^ l ].P 8 [ W <.W [ 8 P ].l ^ !.:.( ",
"( ( :.!.1 ;.+.2 S O P O S 2 +.;.1 !.:.( ( ",
"( ( ( :.!.] / ;.l V D V l ;./ ] !.:.( ( ( ",
"( ( ( ( ( { !.] ] 1 1 1 ] ] !.{ ( ( ( ( ( "};
