/* XPM */
static char * stuckufcs_xpm[] = {
"21 21 34 1",
" 	c #6E6E6E",
".	c #565656",
"+	c #535353",
"@	c #515151",
"#	c #525252",
"$	c #5C5C5C",
"%	c #606060",
"&	c #616161",
"*	c #4D4D4D",
"=	c #4E4E4E",
"-	c #FEFEFE",
";	c #585858",
">	c #FFFFFF",
",	c #9A9A9A",
"'	c #B6B6B6",
")	c #BEBEBE",
"!	c #4A4A4A",
"~	c #4C4C4C",
"{	c #5A5A5A",
"]	c #B4B4B4",
"^	c #D8D8D8",
"/	c #E2E2E2",
"(	c #434343",
"_	c #454545",
":	c #B1B1B1",
"<	c #D6D6D6",
"[	c #E1E1E1",
"}	c #444444",
"|	c #4F4F4F",
"1	c #949494",
"2	c #B2B2B2",
"3	c #BABABA",
"4	c #494949",
"5	c #555555",
"                     ",
".....................",
".....................",
".....................",
"+++++++++++++++++++++",
"+++++++++++++++++++++",
"@@@@@@@##+++##@@@@@@@",
"@@@@@@#.$%&%$.#@@@@@@",
"*****=+&-----&+=*****",
"*****=;>,')',>;=*****",
"!!!!!~{-]^/^]-{~!!!!!",
"(((((_+-:<[<:-+_(((((",
"(((((}|>12321>|}(((((",
"(((((}4;-----;4}(((((",
"((((((}4|+5+|4}((((((",
"(((((((}}___}}(((((((",
"(((((((((((((((((((((",
"(((((((((((((((((((((",
"(((((((((((((((((((((",
"(((((((((((((((((((((",
"((((((((((((((((((((("};
