/* XPM */
static char * stuckfcs_xpm[] = {
"21 21 35 1",
" 	c #858585",
".	c #696969",
"+	c #656565",
"@	c #626262",
"#	c #636363",
"$	c #646464",
"%	c #676767",
"&	c #6C6C6C",
"*	c #707070",
"=	c #717171",
"-	c #5E5E5E",
";	c #5F5F5F",
">	c #FEFEFE",
",	c #686868",
"'	c #FFFFFF",
")	c #A3A3A3",
"!	c #BDBDBD",
"~	c #C4C4C4",
"{	c #5A5A5A",
"]	c #5C5C5C",
"^	c #BABABA",
"/	c #DBDBDB",
"(	c #E5E5E5",
"_	c #515151",
":	c #535353",
"<	c #606060",
"[	c #B7B7B7",
"}	c #D9D9D9",
"|	c #E3E3E3",
"1	c #525252",
"2	c #9C9C9C",
"3	c #B8B8B8",
"4	c #BFBFBF",
"5	c #565656",
"6	c #616161",
"                     ",
".....................",
".....................",
".....................",
"+++++++++++++++++++++",
"+++++++++++++++++++++",
"@@@@@@@##$$$##@@@@@@@",
"@@@@@@#%&*=*&%#@@@@@@",
"-----;#*>>>>>*#;-----",
"-----;,')!~!)',;-----",
"{{{{{],>^/(/^>,]{{{{{",
"_____:<>[}|}[><:_____",
"_____1]'23432']1_____",
"_____15$>>>>>$51_____",
"______15]<6<]51______",
"_______11:::11_______",
"_____________________",
"_____________________",
"_____________________",
"_____________________",
"_____________________"};
