/* XPM */
static char * unshadefcs_xpm[] = {
"21 21 8 1",
" 	c #858585",
".	c #696969",
"+	c #656565",
"@	c #626262",
"#	c #5E5E5E",
"$	c #5A5A5A",
"%	c #515151",
"&	c #FFFFFF",
"                     ",
".....................",
".....................",
".....................",
"+++++++++++++++++++++",
"+++++++++++++++++++++",
"@@@@@@@@@@@@@@@@@@@@@",
"@@@@@@@@@@@@@@@@@@@@@",
"#####################",
"#####################",
"$$$$$$$$$$$$$$$$$$$$$",
"%%%%%%%%%%%%%%%%%%%%%",
"%%%%%%%%%%%%%%%%%%%%%",
"%%%%%%%%%%%%%%%%%%%%%",
"%%%%%%%%%&&&%%%%%%%%%",
"%%%%%%%%%&%&%%%%%%%%%",
"%%%%%%%%%&&&%%%%%%%%%",
"%%%%%%%%%%%%%%%%%%%%%",
"%%%%%%%%%%%%%%%%%%%%%",
"%%%%%%%%%%%%%%%%%%%%%",
"%%%%%%%%%%%%%%%%%%%%%"};
