/* XPM */
static char * close_inactive_xpm[] = {
"13 12 8 1",
" 	c None",
".	c #F6F6F6 s active_color_2",
"+	c #C9C9C9",
"@	c #F0F0F0",
"#	c #9E9E9E",
"$	c #818181",
"%	c #7A7A7A",
"&	c #646464",
".............",
".............",
"...+@...@+...",
"...#$@.@$#...",
"....#%+%#....",
".....#&#.....",
".....#&#.....",
"....#%+%#....",
"...#$@.@$#...",
"...+@...@+...",
".............",
"............."};
