/* XPM */
static char * maximize_inactive_xpm[] = {
"13 11 9 1",
" 	c None",
".	c #F6F6F6 s active_color_2",
"+	c #A9A9A9",
"@	c #9E9E9E",
"#	c #646464",
"$	c #7A7A7A",
"%	c #C9C9C9",
"&	c #818181",
"*	c #F0F0F0",
".............",
".............",
".............",
"......+......",
".....@#@.....",
"....@$%$@....",
"...@&*.*&@...",
"...%*...*%...",
".............",
".............",
"............."};
