/* XPM */
static char * maximize_pressed_xpm[] = {
"13 11 6 1",
" 	c None",
".	c #F6F6F6 s active_color_2",
"+	c #E58080",
"@	c #FFE6E6",
"#	c #C14444",
"$	c #A90000",
".............",
".............",
".............",
".............",
"......#......",
".....#$#.....",
"....#$+$#....",
"...#$@.@$#...",
"...+@...@+...",
".............",
"............."};
