/* XPM */
static char * title_3_inactive_xpm[] = {
"5 20 3 1",
" 	c None",
".	c #F6F6F6 s active_color_2",
"+	c #828282 s inactive_shadow_1",
"+++++",
".....",
".....",
".....",
".....",
".....",
".....",
".....",
".....",
".....",
".....",
".....",
".....",
".....",
".....",
".....",
".....",
".....",
".....",
"....."};