/* XPM */
static char * closefcs_xpm[] = {
"16 16 2 1",
" 	c #FBFBFB",
".	c #5A5A5A",
"                ",
"                ",
"  ............  ",
"  .          .  ",
"  .          .  ",
"  .    ..    .  ",
"  .   ....   .  ",
"  .  ..  ..  .  ",
"  .  ..  ..  .  ",
"  .   ....   .  ",
"  .    ..    .  ",
"  .          .  ",
"  .          .  ",
"  ............  ",
"                ",
"                "};
