/* XPM */
static char * minpr_xpm[] = {
"16 16 2 1",
" 	c #FBFBFB",
".	c #A05A5A",
"                ",
"                ",
"  ............  ",
"  .          .  ",
"  .          .  ",
"  .          .  ",
"  .          .  ",
"  .  .    .  .  ",
"  .  ..  ..  .  ",
"  .   ....   .  ",
"  .    ..    .  ",
"  .          .  ",
"  .          .  ",
"  ............  ",
"                ",
"                "};
