/* XPM */
static char * stickufcs_xpm[] = {
"16 16 2 1",
" 	c #FBFBFB",
".	c #B5B5B5",
"                ",
"                ",
"                ",
"       ..       ",
"       ..       ",
"       ..       ",
"       ..       ",
"                ",
"                ",
"       ..       ",
"       ..       ",
"       ..       ",
"       ..       ",
"                ",
"                ",
"                "};
