/* XPM */
static char * closepr_xpm[] = {
"20 21 140 2",
"  	c #F5F6F3",
". 	c #ECEDE9",
"+ 	c #E7E8E3",
"@ 	c #E4E5E0",
"# 	c #949591",
"$ 	c #636361",
"% 	c #484846",
"& 	c #3D3D3B",
"* 	c #626360",
"= 	c #929390",
"- 	c #CBCCC7",
"; 	c #6D6D6A",
"> 	c #616261",
", 	c #9F9F9F",
"' 	c #C8C8C8",
") 	c #E1E1E1",
"! 	c #636362",
"~ 	c #6B6B68",
"{ 	c #CACBC6",
"] 	c #E1E2DD",
"^ 	c #6A6A68",
"/ 	c #7A7A7C",
"( 	c #D0D0D0",
"_ 	c #DADADD",
": 	c #D3D3D5",
"< 	c #CED1D1",
"[ 	c #D3D5D5",
"} 	c #79797B",
"| 	c #686866",
"1 	c #E0E1DC",
"2 	c #8E8E8B",
"3 	c #616161",
"4 	c #CDCDD0",
"5 	c #D8D8D8",
"6 	c #CCCCCC",
"7 	c #C7C7C9",
"8 	c #C7C5C9",
"9 	c #CCCCCE",
"0 	c #626261",
"a 	c #8A8B88",
"b 	c #DDDED9",
"c 	c #5C5D5B",
"d 	c #9B9B9B",
"e 	c #DDDDDF",
"f 	c #D1D1D3",
"g 	c #CACACA",
"h 	c #C9C9C9",
"i 	c #D1D1D1",
"j 	c #595A58",
"k 	c #D9DAD6",
"l 	c #CFD0CC",
"m 	c #464645",
"n 	c #C3C3C4",
"o 	c #D6D6D8",
"p 	c #CED1CE",
"q 	c #CECECE",
"r 	c #D1CED1",
"s 	c #464646",
"t 	c #C9CAC5",
"u 	c #E4E5E2",
"v 	c #3C3C3B",
"w 	c #D6D6D6",
"x 	c #D8D6D6",
"y 	c #D6D5D5",
"z 	c #D5D5D5",
"A 	c #D5D6D6",
"B 	c #D5D5D6",
"C 	c #D8D6D8",
"D 	c #3D3D3C",
"E 	c #C3C3BF",
"F 	c #C6C7C2",
"G 	c #454544",
"H 	c #BCBCBC",
"I 	c #DADADA",
"J 	c #DDDADA",
"K 	c #DDDDDD",
"L 	c #DADDDD",
"M 	c #D8DADA",
"N 	c #BDBDBD",
"O 	c #474746",
"P 	c #C0C1BE",
"Q 	c #E6E7E2",
"R 	c #C9CAC6",
"S 	c #535352",
"T 	c #929292",
"U 	c #DFDFDF",
"V 	c #DDDFDD",
"W 	c #939393",
"X 	c #555555",
"Y 	c #C5C7C2",
"Z 	c #737371",
"` 	c #5E5E5D",
" .	c #BCBCC0",
"..	c #DAD8DA",
"+.	c #DFDDDF",
"@.	c #5F605F",
"#.	c #767774",
"$.	c #DBDCD7",
"%.	c #AFAFAC",
"&.	c #595957",
"*.	c #707071",
"=.	c #BCBCBE",
"-.	c #727272",
";.	c #5B5B5A",
">.	c #B3B3B1",
",.	c #D5D6D2",
"'.	c #CBCCC8",
").	c #939491",
"!.	c #595958",
"~.	c #919191",
"{.	c #B5B5B6",
"].	c #C9C9CA",
"^.	c #606060",
"/.	c #5A5B59",
"(.	c #979896",
"_.	c #C9CAC7",
":.	c #A2A3A0",
"<.	c #6D6D6B",
"[.	c #515251",
"}.	c #414040",
"|.	c #474846",
"1.	c #525252",
"2.	c #6F6F6E",
"3.	c #A7A7A4",
"4.	c #C6C7C4",
"5.	c #DDDEDB",
"6.	c #CCCDC8",
"7.	c #B0B1AE",
"8.	c #A3A4A1",
"9.	c #989997",
"0.	c #959694",
"a.	c #9A9A97",
"b.	c #A5A6A4",
"c.	c #B5B6B4",
"d.	c #DADBD6",
"e.	c #CACAC7",
"f.	c #C6C7C3",
"g.	c #C8C8C5",
"h.	c #CCCDC9",
"i.	c #D7D8D4",
"                                        ",
". . . . . . . . . . . . . . . . . . . . ",
"+ + + + + + + + + + + + + + + + + + + + ",
"+ + + + + + + + + + + + + + + + + + + + ",
"+ + + + + + @ # $ % & % * = @ + + + + + ",
"+ + + + + - ; > , ' ) ' , ! ~ { + + + + ",
"+ + + + ] ^ / ( _ : < [ _ ( } | 1 + + + ",
"+ + + @ 2 3 4 5 6 7 8 7 9 5 4 0 a @ + + ",
"+ + + b c d e f g h h h g i e d j k + + ",
"+ + + l m n o i p q < r < i o n s t u + ",
"+ + + t v w x y z A x A z B C z D E u + ",
"+ + + F G H 5 I J K K L I M 5 N O P Q + ",
"+ + + R S T o K U U U U U V C W X Y Q + ",
"+ + + l Z `  ...K +.U +.K .. .@.#.R u + ",
"+ + + $.%.&.*.=.B 5 5 5 B =.-.;.>.,.u + ",
"+ + + @ '.).!.@.~.{.].{.~.^./.(._.] + + ",
"+ + + + 1 F :.<.[.O }.|.1.2.3.4.5.+ + + ",
"+ + + + + 1 6.7.8.9.0.a.b.c.'.5.+ + + + ",
"+ + + + + + @ d.e.f.g.'.h.i.] + + + + + ",
"+ + + + + + + + u Q + + Q u + + + + + + ",
"+ + + + + + + + + + + + + + + + + + + + "};
