/* XPM */
static char * closeufcs_xpm[] = {
"20 21 40 1",
" 	c #F5F6F3",
".	c #ECEDE9",
"+	c #E7E8E3",
"@	c #DFE0DC",
"#	c #DADBD6",
"$	c #D6D7D2",
"%	c #D4D5D0",
"&	c #D6D6D2",
"*	c #E0E1DC",
"=	c #E5E6E1",
"-	c #DCDDD8",
";	c #D8D9D4",
">	c #DEDFDA",
",	c #E2E2DE",
"'	c #E4E5E0",
")	c #DDDEDA",
"!	c #DBDCD7",
"~	c #E4E5E1",
"{	c #E2E3DE",
"]	c #E3E4E0",
"^	c #E2E3DF",
"/	c #E2E4DF",
"(	c #E6E7E2",
"_	c #D7D8D4",
":	c #E3E4DF",
"<	c #E1E2DD",
"[	c #DFE0DB",
"}	c #D9DAD5",
"|	c #DDDED9",
"1	c #E4E4E0",
"2	c #E1E2DE",
"3	c #D5D6D1",
"4	c #D5D6D2",
"5	c #D3D4CF",
"6	c #E4E4DF",
"7	c #D6D7D3",
"8	c #E0E1DD",
"9	c #D7D8D3",
"0	c #D8D9D5",
"a	c #D4D4D0",
"                    ",
"....................",
"++++++++++++++++++++",
"++++++++++++++++++++",
"+++++++@#$%&#*++++++",
"+++++=-;>,',);!~++++",
"+++++!#{]^{/]{#!(+++",
"++++@_{:{<<<{:{_[+++",
"+++(}|1{2<<<2{1|}(++",
"+++=3<:{{{{{{{:<4=++",
"+++=5:::::::::::5'++",
"+++=3*::611]:::*3'++",
"+++=;-:1'''''':-_'++",
"+++=-78:11'11:89-=++",
"+++(^;08:::::8}0:(++",
"++++=*09-[2[-9;*=+++",
"++++(=<!_3a3_!,'(+++",
"+++++(=^<***,:=(++++",
"+++++++(=''==(++++++",
"++++++++++++++++++++",
"++++++++++++++++++++"};
