/* XPM */
static char * maxfcs_xpm[] = {
"20 21 107 2",
"  	c #F5F6F3",
". 	c #ECEDE9",
"+ 	c #E7E8E3",
"@ 	c #E6E7E2",
"# 	c #CACBC6",
"$ 	c #B2B3B0",
"% 	c #A1A29E",
"& 	c #989895",
"* 	c #B2B3AF",
"= 	c #C9CAC6",
"- 	c #DEDFDA",
"; 	c #B8B8B4",
"> 	c #A9AAA6",
", 	c #C1C2BD",
"' 	c #D1D1CD",
") 	c #DADBD7",
"! 	c #C0C1BD",
"~ 	c #B7B8B4",
"{ 	c #E5E6E1",
"] 	c #B7B7B3",
"^ 	c #B2B3B1",
"/ 	c #D3D4D0",
"( 	c #D8D9D5",
"_ 	c #D4D5D1",
": 	c #D2D4CF",
"< 	c #D4D6D1",
"[ 	c #B1B2AF",
"} 	c #B6B6B2",
"| 	c #C7C8C4",
"1 	c #D2D3D0",
"2 	c #D7D8D3",
"3 	c #D1D2CE",
"4 	c #CFCFCC",
"5 	c #D1D2CF",
"6 	c #A8A8A5",
"7 	c #C6C7C3",
"8 	c #E4E5E0",
"9 	c #AFB0AC",
"0 	c #BEBFBB",
"a 	c #D9D9D6",
"b 	c #D0D1CD",
"c 	c #CFD0CC",
"d 	c #D3D4CF",
"e 	c #BDBEBA",
"f 	c #ACADAA",
"g 	c #E3E4DF",
"h 	c #E0E1DC",
"i 	c #9FA09C",
"j 	c #CECFCB",
"k 	c #D6D7D3",
"l 	c #D2D3CF",
"m 	c #D3D3CF",
"n 	c #9E9E9B",
"o 	c #969793",
"p 	c #D6D7D2",
"q 	c #D7D7D2",
"r 	c #D6D6D1",
"s 	c #D5D6D1",
"t 	c #D5D7D2",
"u 	c #D5D6D2",
"v 	c #D7D7D3",
"w 	c #DBDCD7",
"x 	c #DDDED9",
"y 	c #9D9E9A",
"z 	c #CACBC7",
"A 	c #D8D9D4",
"B 	c #D9D9D4",
"C 	c #D9D9D5",
"D 	c #D7D9D4",
"E 	c #CBCCC8",
"F 	c #9D9E9B",
"G 	c #B9BAB6",
"H 	c #D9DAD6",
"I 	c #D9DAD5",
"J 	c #BABBB7",
"K 	c #A9A9A6",
"L 	c #DCDDD8",
"M 	c #BBBCB7",
"N 	c #A4A5A1",
"O 	c #CBCCC9",
"P 	c #D8D8D4",
"Q 	c #A5A6A2",
"R 	c #BCBDB8",
"S 	c #ABACA8",
"T 	c #ACACA9",
"U 	c #ADAEAA",
"V 	c #ADADA9",
"W 	c #D6D6D2",
"X 	c #E1E2DD",
"Y 	c #DFE0DB",
"Z 	c #ABABA8",
"` 	c #B9BAB5",
" .	c #C8C8C4",
"..	c #CFD0CD",
"+.	c #A6A6A3",
"@.	c #ACADA9",
"#.	c #DDDEDA",
"$.	c #D0D1CC",
"%.	c #A6A7A4",
"&.	c #999996",
"*.	c #9E9F9B",
"=.	c #A7A7A4",
"-.	c #B8B9B5",
";.	c #D1D2CD",
">.	c #DCDDD9",
",.	c #CCCDC8",
"'.	c #E2E3DE",
"                                        ",
". . . . . . . . . . . . . . . . . . . . ",
"+ + + + + + + + + + + + + + + + + + + + ",
"+ + + + + + + + + + + + + + + + + + + + ",
"+ + + + + + @ # $ % & % * = @ + + + + + ",
"+ + + + + - ; > , ' ) ' ! > ~ - + + + + ",
"+ + + + { ] ^ / ( _ : < ( / [ } { + + + ",
"+ + + @ | > 1 2 3 4 4 4 5 2 1 6 7 @ + + ",
"+ + + 8 9 0 a / b c c c b d a e f g + + ",
"+ + + h i j k d : l : m : d k j n - @ + ",
"+ + + - o p q r s t q t s u v s o w @ + ",
"+ + + x y z 2 A B C C ( A D 2 E F ) @ + ",
"+ + + - 6 G k C H H H H H I v J K L @ + ",
"+ + + h M N O P C a H a C P O Q R x @ + ",
"+ + + 8 s S T O u 2 2 2 u O U V W X @ + ",
"+ + + @ Y # Z Q `  ... .` +.@.E #.{ + + ",
"+ + + + { x $.~ %.F &.*.=.-.;.>.8 + + + ",
"+ + + + + { Y s $.,.z ,.b k - 8 + + + + ",
"+ + + + + + @ g - L >.- - '.{ + + + + + ",
"+ + + + + + + + @ @ + + @ @ + + + + + + ",
"+ + + + + + + + + + + + + + + + + + + + "};
