/* XPM */
static char * menuiconufcs_xpm[] = {
"20 21 5 1",
" 	c #F5F6F3",
".	c #ECEDE9",
"+	c #E7E8E3",
"@	c #2E2E2D",
"#	c #090909",
"                    ",
"....................",
"++++++++++++++++++++",
"++++++++++++++++++++",
"++++++++++++++++++++",
"++++++++++++++++++++",
"++++++++++++++++++++",
"+++++++++@@+++++++++",
"+++++++++@@+++++++++",
"++++++@@++++@@++++++",
"+++++++@#++#@+++++++",
"+++++++@#++#@+++++++",
"++++++@@++++@@++++++",
"+++++++++@@+++++++++",
"+++++++++@@+++++++++",
"++++++++++++++++++++",
"++++++++++++++++++++",
"++++++++++++++++++++",
"++++++++++++++++++++",
"++++++++++++++++++++",
"++++++++++++++++++++"};
