/* XPM */
static char * stuckfcs_xpm[] = {
"20 21 112 2",
"  	c #F5F6F3",
". 	c #ECEDE9",
"+ 	c #E7E8E3",
"@ 	c #E6E7E2",
"# 	c #C3C4C0",
"$ 	c #A8A9A6",
"% 	c #959692",
"& 	c #8B8B89",
"* 	c #A8A9A5",
"= 	c #DCDDD8",
"- 	c #AFAFAB",
"; 	c #9E9F9B",
"> 	c #B9BAB5",
", 	c #CCCCC8",
"' 	c #D7D8D4",
") 	c #B8B9B5",
"! 	c #ADAEAB",
"~ 	c #E5E6E1",
"{ 	c #ADADA9",
"] 	c #A8A9A7",
"^ 	c #CFD0CC",
"/ 	c #D5D6D2",
"( 	c #D0D1CD",
"_ 	c #CDD0CB",
": 	c #D0D2CD",
"< 	c #A7A8A5",
"[ 	c #E4E5E0",
"} 	c #C0C1BE",
"| 	c #CDCECC",
"1 	c #D3D4CF",
"2 	c #CCCDC9",
"3 	c #CACAC7",
"4 	c #CAC9C7",
"5 	c #CCCDCA",
"6 	c #9D9D9A",
"7 	c #BFC0BC",
"8 	c #E3E4DF",
"9 	c #A4A5A1",
"0 	c #B6B7B3",
"a 	c #D6D6D3",
"b 	c #CBCCC8",
"c 	c #CACBC7",
"d 	c #CFD0CB",
"e 	c #B5B6B2",
"f 	c #A1A2A0",
"g 	c #E2E3DE",
"h 	c #DEDFDA",
"i 	c #939490",
"j 	c #C9CAC6",
"k 	c #D2D3CF",
"l 	c #CDD0CA",
"m 	c #CDCECA",
"n 	c #CFCECB",
"o 	c #92928F",
"p 	c #898A86",
"q 	c #D2D3CE",
"r 	c #D3D3CE",
"s 	c #D2D2CD",
"t 	c #D1D2CD",
"u 	c #D1D3CE",
"v 	c #D1D2CE",
"w 	c #D3D3CF",
"x 	c #D8D9D4",
"y 	c #DBDCD7",
"z 	c #91918E",
"A 	c #C4C5C1",
"B 	c #D5D6D1",
"C 	c #D6D6D1",
"D 	c #D6D6D2",
"E 	c #D3D6D1",
"F 	c #C5C6C2",
"G 	c #91928F",
"H 	c #B0B1AD",
"I 	c #D6D7D3",
"J 	c #D6D7D2",
"K 	c #B1B2AE",
"L 	c #9E9E9B",
"M 	c #D9DAD5",
"N 	c #DFE0DB",
"O 	c #B2B3AE",
"P 	c #989996",
"Q 	c #C5C6C3",
"R 	c #D5D4D1",
"S 	c #999A97",
"T 	c #B3B4B0",
"U 	c #A0A19D",
"V 	c #A1A19E",
"W 	c #A2A39F",
"X 	c #A2A29E",
"Y 	c #D2D2CE",
"Z 	c #E0E1DC",
"` 	c #DDDED9",
" .	c #C4C5C0",
"..	c #A0A09D",
"+.	c #B0B1AC",
"@.	c #C1C1BE",
"#.	c #CACBC8",
"$.	c #9A9A98",
"%.	c #A1A29E",
"&.	c #DBDCD8",
"*.	c #CBCCC7",
"=.	c #AEAFAB",
"-.	c #9B9C99",
";.	c #8C8C89",
">.	c #92938F",
",.	c #9C9C99",
"'.	c #AFB0AC",
").	c #CCCDC8",
"!.	c #DADBD7",
"~.	c #C6C7C2",
"{.	c #DADBD6",
"].	c #E1E2DD",
"                                        ",
". . . . . . . . . . . . . . . . . . . . ",
"+ + + + + + + + + + + + + + + + + + + + ",
"+ + + + + + + + + + + + + + + + + + + + ",
"+ + + + + + @ # $ % & % * # @ + + + + + ",
"+ + + + + = - ; > , ' , ) ; ! = + + + + ",
"+ + + + ~ { ] ^ / ( _ : / ^ < { [ + + + ",
"+ + + @ } ; | 1 2 3 4 3 5 1 | 6 7 @ + + ",
"+ + + 8 9 0 a ^ b c c c b d a e f g + + ",
"+ + + h i j k d l m _ n _ d k j o = @ + ",
"+ + + = p q r s t u r u t v w t p x @ + ",
"+ + + y z A 1 B C D D / B E 1 F G ' @ + ",
"+ + + = 6 H k D I I I I I J w K L M @ + ",
"+ + + N O P Q R D a I a D R Q S T y @ + ",
"+ + + 8 t U V Q v 1 1 1 v Q W X Y Z @ + ",
"+ + + @ `  ...S +.@.#.@.+.$.%.F &.~ + + ",
"+ + + + [ y *.=.-.G ;.>.,.'.).!.8 + + + ",
"+ + + + + [ ` t *.~.A ~.b k = 8 + + + + ",
"+ + + + + + @ g = {.!.= = ].~ + + + + + ",
"+ + + + + + + + @ @ + + @ @ + + + + + + ",
"+ + + + + + + + + + + + + + + + + + + + "};
