/* XPM */
static char * closefcs_xpm[] = {
"20 21 134 2",
"  	c #DCDCDC",
". 	c #EEEFEE",
"+ 	c #EEEEEE",
"@ 	c #EEEEEF",
"# 	c #EFF0EF",
"$ 	c #F0EFF0",
"% 	c #F0F0F0",
"& 	c #EFF0F0",
"* 	c #EFEFF0",
"= 	c #EFEFEF",
"- 	c #F0F0EF",
"; 	c #F0EFEF",
"> 	c #F1F1F1",
", 	c #F1F2F1",
"' 	c #F2F1F2",
") 	c #F2F2F1",
"! 	c #F1F1F2",
"~ 	c #F3F3F3",
"{ 	c #F3F2F3",
"] 	c #F2F3F3",
"^ 	c #F3F3F2",
"/ 	c #BBBBBB",
"( 	c #939292",
"_ 	c #787878",
": 	c #676867",
"< 	c #777878",
"[ 	c #929393",
"} 	c #F1F0F1",
"| 	c #F2F2F2",
"1 	c #F3F2F2",
"2 	c #F2F3F2",
"3 	c #F4F4F4",
"4 	c #F5F5F4",
"5 	c #F5F4F4",
"6 	c #F4F5F4",
"7 	c #E1E1E1",
"8 	c #9B9A9A",
"9 	c #858585",
"0 	c #AFAFAF",
"a 	c #D5D5D5",
"b 	c #EFEEEF",
"c 	c #D5D6D5",
"d 	c #E1E2E1",
"e 	c #F5F4F5",
"f 	c #F4F5F5",
"g 	c #F4F4F5",
"h 	c #F6F6F6",
"i 	c #F5F6F6",
"j 	c #9A9A9A",
"k 	c #929293",
"l 	c #DBDCDC",
"m 	c #F5F5F6",
"n 	c #F6F6F5",
"o 	c #F6F5F5",
"p 	c #DCDBDC",
"q 	c #F1F2F2",
"r 	c #F7F7F7",
"s 	c #F7F7F8",
"t 	c #F5F6F5",
"u 	c #B9B9B9",
"v 	c #DADADB",
"w 	c #F8F7F7",
"x 	c #F8F9F9",
"y 	c #F9F9F8",
"z 	c #F9F8F9",
"A 	c #909090",
"B 	c #ABABAB",
"C 	c #F3F1F3",
"D 	c #F6F7F7",
"E 	c #F9F9F9",
"F 	c #F8F8F9",
"G 	c #FAFBFB",
"H 	c #FAFBFA",
"I 	c #FAFAFA",
"J 	c #ECEDED",
"K 	c #777777",
"L 	c #CCCCCE",
"M 	c #ECECEE",
"N 	c #F5F5F5",
"O 	c #F6F8F7",
"P 	c #FBF8FB",
"Q 	c #F6F8F6",
"R 	c #ECECED",
"S 	c #FCFCFC",
"T 	c #EAEAEA",
"U 	c #6C6C6C",
"V 	c #DDDDDD",
"W 	c #E9E9E9",
"X 	c #EDECEE",
"Y 	c #F2EFF2",
"Z 	c #F2F0F2",
"` 	c #EEEBED",
" .	c #6B6C6C",
"..	c #FFFFFF",
"+.	c #EBEBEB",
"@.	c #C5C5C5",
"#.	c #E4E4E4",
"$.	c #E8E8E9",
"%.	c #EBEBED",
"&.	c #EFEFF1",
"*.	c #EDEDED",
"=.	c #8C8C8C",
"-.	c #A5A5A5",
";.	c #DADADC",
">.	c #E0E0E0",
",.	c #E6E6E6",
"'.	c #E6E6E8",
").	c #ADADAD",
"!.	c #828282",
"~.	c #BFBFC3",
"{.	c #D9D7D9",
"].	c #DCDADC",
"^.	c #DCDCDE",
"/.	c #DEDEDE",
"(.	c #8F8F8F",
"_.	c #8A8A8C",
":.	c #BDBDBF",
"<.	c #D1D1D3",
"[.	c #D3D3D3",
"}.	c #D3D3D5",
"|.	c #FDFDFD",
"1.	c #C8C8C8",
"2.	c #8E8E8E",
"3.	c #808082",
"4.	c #9D9DA0",
"5.	c #B9B9BC",
"6.	c #C8C7CA",
"7.	c #FBFBFB",
"8.	c #A2A2A2",
"9.	c #868686",
"0.	c #757575",
"a.	c #6D6D6D",
"b.	c #D1D1D1",
"c.	c #C1C1C1",
"                                        ",
". + + + + @ + + + + + + + + + + + + + + ",
"# $ % % $ & $ % * = # & $ # - ; # % # - ",
"> > > , > ' > , , > > ) ! > > > > > ! > ",
"~ { ~ ] ^ ~ % / ( _ : < [ / } ~ | 1 | 2 ",
"3 4 3 5 6 7 8 9 0 a b c 0 9 8 d e f g 3 ",
"h i i h ) j k l m h n h o p k j q n i h ",
"r s r t u 9 v w r w r r w s v 9 u n r s ",
"x y z { A B C D E x F F E r C B A { x E ",
"G H I J K L M N O E P x Q 3 M L K R I I ",
"S S S T U V W X Y 3 3 3 Z ` W V  .T S S ",
"......+._ @.#.$.%.= &.= %.$.#.@._ +.....",
"......*.=.-.;.>.#.,.'.,.#.>.;.-.=.*.....",
"......> ).!.~.{.;.].^.].;.{.~.!.).> ....",
"......E /.(._.:.<.[.}.[.<.:._.(./.E ....",
"......|.= 1.2.3.4.5.6.5.4.3.2.1.= |.....",
"........7.+.[.8.9.0.a.0.9.8.[.+.7.......",
"..........7.= /.b.1.@.1.b./.= 7.........",
"............|.E > *.+.*.> E |...........",
"........................................",
"c.c.c.c.c.c.c.c.c.c.c.c.c.c.c.c.c.c.c.c."};
