/* XPM */
static char * maxufcs_xpm[] = {
"20 21 99 2",
"  	c #DCDCDC",
". 	c #EEEFEE",
"+ 	c #EEEEEE",
"@ 	c #EEEEEF",
"# 	c #EFF0EF",
"$ 	c #F0EFF0",
"% 	c #F0F0F0",
"& 	c #EFF0F0",
"* 	c #EFEFF0",
"= 	c #EFEFEF",
"- 	c #F0F0EF",
"; 	c #F0EFEF",
"> 	c #F1F1F1",
", 	c #F1F2F1",
"' 	c #F2F1F2",
") 	c #F2F2F1",
"! 	c #F1F1F2",
"~ 	c #F3F3F3",
"{ 	c #F3F2F3",
"] 	c #F2F3F3",
"^ 	c #F3F3F2",
"/ 	c #F2F2F2",
"( 	c #E8E7E8",
"_ 	c #DDDCDC",
": 	c #D6D6D6",
"< 	c #D1D2D1",
"[ 	c #DCDDDD",
"} 	c #E8E8E8",
"| 	c #F3F2F2",
"1 	c #F2F3F2",
"2 	c #F4F4F4",
"3 	c #F5F5F4",
"4 	c #F5F4F4",
"5 	c #F4F5F4",
"6 	c #E1E0E0",
"7 	c #DADADB",
"8 	c #E5E5E5",
"9 	c #F4F3F4",
"0 	c #DBDADA",
"a 	c #F0F1F0",
"b 	c #F5F4F5",
"c 	c #F4F5F5",
"d 	c #F4F4F5",
"e 	c #F6F6F6",
"f 	c #F5F6F6",
"g 	c #E2E1E2",
"h 	c #DEDEE0",
"i 	c #F0F1F1",
"j 	c #F5F5F6",
"k 	c #F6F6F5",
"l 	c #F6F5F5",
"m 	c #F1F0F1",
"n 	c #DFDEDF",
"o 	c #F7F7F7",
"p 	c #F7F7F8",
"q 	c #F7F8F7",
"r 	c #E9E9E9",
"s 	c #F2F1F1",
"t 	c #F8F7F7",
"u 	c #F8F8F7",
"v 	c #F8F9F9",
"w 	c #F9F9F8",
"x 	c #F9F8F9",
"y 	c #F8F7F8",
"z 	c #E2E2E2",
"A 	c #F9F9F9",
"B 	c #F8F8F9",
"C 	c #E8E8E7",
"D 	c #E1E2E2",
"E 	c #FAFBFB",
"F 	c #FAFBFA",
"G 	c #FAFAFA",
"H 	c #F7F8F8",
"I 	c #DCDBDB",
"J 	c #F9FAFA",
"K 	c #FBFBFB",
"L 	c #FBFAFB",
"M 	c #F9FAF9",
"N 	c #F0F0F1",
"O 	c #DCDBDC",
"P 	c #FCFCFC",
"Q 	c #F8F8F8",
"R 	c #D9D9D9",
"S 	c #FAF9FA",
"T 	c #F9F8F8",
"U 	c #FFFFFF",
"V 	c #DFDFDF",
"W 	c #FAFAFB",
"X 	c #EBEBEB",
"Y 	c #EDEDED",
"Z 	c #FEFEFE",
"` 	c #E4E4E4",
" .	c #E1E1E2",
"..	c #E9E9EA",
"+.	c #EAEAEA",
"@.	c #E3E3E3",
"#.	c #DEDEDE",
"$.	c #F5F5F5",
"%.	c #C1C1C1",
"                                        ",
". + + + + @ + + + + + + + + + + + + + + ",
"# $ % % $ & $ % * = # & $ # - ; # % # - ",
"> > > , > ' > , , > > ) ! > > > > > ! > ",
"~ { ~ ] ^ ~ / ( _ : < : [ } { ~ / | / 1 ",
"2 3 2 4 5 % 6 7 8 + 9 . 8 0 6 a b c d 2 ",
"e f f e 3 g h i j e k e l m n g c k f e ",
"o p o q r   s t o t o o t p / _ r u o p ",
"v w x y z } y v A v B B A A y C D y v A ",
"E F G H I > p G J K L E M A p N O p G G ",
"P P P Q R e Q v S G G G G T Q e R Q P P ",
"U U U K V ~ A W K P P P K W A ~ V K U U ",
"U U U K 8 X p A A G G G A A p X 8 K U U ",
"U U U P Y z ! o p y Q y p o ! z Y P U U ",
"U U U Z Q 8 ` > j e e e j > ` 8 Q Z U U ",
"U U U U P ~ 8  ...N 9 N .. .8 ~ P U U U ",
"U U U U Z K e +.@.#.  #.@.+.e K Z U U U ",
"U U U U U Z P Q $.~ ~ ~ $.Q P Z U U U U ",
"U U U U U U U Z P K K K P Z U U U U U U ",
"U U U U U U U U U U U U U U U U U U U U ",
"%.%.%.%.%.%.%.%.%.%.%.%.%.%.%.%.%.%.%.%."};
