/* XPM */
static char * minfcs_xpm[] = {
"20 21 121 2",
"  	c #DCDCDC",
". 	c #EEEFEE",
"+ 	c #EEEEEE",
"@ 	c #EEEEEF",
"# 	c #EFF0EF",
"$ 	c #F0EFF0",
"% 	c #F0F0F0",
"& 	c #EFF0F0",
"* 	c #EFEFF0",
"= 	c #EFEFEF",
"- 	c #F0F0EF",
"; 	c #F0EFEF",
"> 	c #F1F1F1",
", 	c #F1F2F1",
"' 	c #F2F1F2",
") 	c #F2F2F1",
"! 	c #F1F1F2",
"~ 	c #F3F3F3",
"{ 	c #F3F2F3",
"] 	c #F2F3F3",
"^ 	c #F3F3F2",
"/ 	c #D5D5D5",
"( 	c #BDBCBC",
"_ 	c #ABABAB",
": 	c #9E9F9E",
"< 	c #AAABAB",
"[ 	c #BCBDBD",
"} 	c #F2F2F2",
"| 	c #F3F2F2",
"1 	c #F2F3F2",
"2 	c #F4F4F4",
"3 	c #F5F5F4",
"4 	c #F5F4F4",
"5 	c #F4F5F4",
"6 	c #EAEAEA",
"7 	c #C3C2C2",
"8 	c #B4B4B4",
"9 	c #CECECE",
"0 	c #E4E4E4",
"a 	c #E4E5E4",
"b 	c #EAEBEA",
"c 	c #F5F4F5",
"d 	c #F4F5F5",
"e 	c #F4F4F5",
"f 	c #F6F6F6",
"g 	c #F5F6F6",
"h 	c #F4F4F3",
"i 	c #C3C2C3",
"j 	c #BDBDBE",
"k 	c #E8E9E9",
"l 	c #F5F5F6",
"m 	c #F6F6F5",
"n 	c #F6F5F5",
"o 	c #E9E8E9",
"p 	c #BEBDBE",
"q 	c #F3F4F4",
"r 	c #F7F7F7",
"s 	c #F7F7F8",
"t 	c #F6F7F6",
"u 	c #D6D6D6",
"v 	c #B5B5B5",
"w 	c #E8E8E9",
"x 	c #F8F7F7",
"y 	c #B6B5B5",
"z 	c #F7F7F6",
"A 	c #F8F9F9",
"B 	c #F9F9F8",
"C 	c #F9F8F9",
"D 	c #F6F5F6",
"E 	c #BDBDBD",
"F 	c #F7F8F8",
"G 	c #F9F9F9",
"H 	c #F8F8F9",
"I 	c #F8F8F8",
"J 	c #FAFBFB",
"K 	c #FAFBFA",
"L 	c #FAFAFA",
"M 	c #ADADAD",
"N 	c #E2E2E3",
"O 	c #F3F3F4",
"P 	c #FBF9FB",
"Q 	c #F9FAFA",
"R 	c #F8F9F8",
"S 	c #FCFCFC",
"T 	c #A5A5A5",
"U 	c #ECECEC",
"V 	c #F7F5F7",
"W 	c #F7F6F7",
"X 	c #F5F3F4",
"Y 	c #A4A5A5",
"Z 	c #FFFFFF",
"` 	c #F5F5F5",
" .	c #AFAFAF",
"..	c #E0E0E0",
"+.	c #CDCDCD",
"@.	c #ECECED",
"#.	c #F2F2F3",
"$.	c #D2D2D2",
"%.	c #B6B6B6",
"&.	c #DDDDDF",
"*.	c #EBEAEB",
"=.	c #EDECED",
"-.	c #EDEDEE",
";.	c #BFBFBF",
">.	c #BCBCBD",
",.	c #DCDCDD",
"'.	c #E7E7E8",
").	c #E8E8E8",
"!.	c #FEFEFE",
"~.	c #E2E2E2",
"{.	c #BEBEBE",
"].	c #B5B5B6",
"^.	c #C8C8CA",
"/.	c #D9D9DB",
"(.	c #E2E1E3",
"_.	c #FDFDFD",
":.	c #CBCBCB",
"<.	c #B9B9B9",
"[.	c #A7A7A7",
"}.	c #E7E7E7",
"|.	c #C1C1C1",
"                                        ",
". + + + + @ + + + + + + + + + + + + + + ",
"# $ % % $ & $ % * = # & $ # - ; # % # - ",
"> > > , > ' > , , > > ) ! > > > > > ! > ",
"~ { ~ ] ^ ~ > / ( _ : < [ / ' ~ } | } 1 ",
"2 3 2 4 5 6 7 8 9 0 ' a 9 8 7 b c d e 2 ",
"f g g f h i j k l f m f n o p i q m g f ",
"r s r t u v w x r x r r x s w y u z r s ",
"A B C D E 9 D F G A H H G I D 9 E D A G ",
"J K L q M N O I A L P Q R r O N M O L L ",
"S S S ~ T U } e V I I I W X } U Y ~ S S ",
"Z Z Z `  ...> O l r s r l O > .. .` Z Z ",
"Z Z Z f E +.@.= > } #.} > = @.+.E f Z Z ",
"Z Z Z I $.%.&.*.@.=.-.=.@.*.&.%.$.I Z Z ",
"Z Z Z S + ;.>.,.'.).w ).'.,.>.;.+ S Z Z ",
"Z Z Z !.r ~.{.].^./.(./.^.].{.~.r !.Z Z ",
"Z Z Z Z _.` ).:.<.M [.M <.:.).` _.Z Z Z ",
"Z Z Z Z Z _.r + }.~...~.}.+ r _.Z Z Z Z ",
"Z Z Z Z Z Z !.S I f ` f I S !.Z Z Z Z Z ",
"Z Z Z Z Z Z Z Z Z Z Z Z Z Z Z Z Z Z Z Z ",
"|.|.|.|.|.|.|.|.|.|.|.|.|.|.|.|.|.|.|.|."};
