/* XPM */
static char * minpr_xpm[] = {
"20 21 121 2",
"  	c #DCDCDC",
". 	c #EEEFEE",
"+ 	c #EEEEEE",
"@ 	c #EEEEEF",
"# 	c #EFF0EF",
"$ 	c #F0EFF0",
"% 	c #F0F0F0",
"& 	c #EFF0F0",
"* 	c #EFEFF0",
"= 	c #EFEFEF",
"- 	c #F0F0EF",
"; 	c #F0EFEF",
"> 	c #F1F1F1",
", 	c #F1F2F1",
"' 	c #F2F1F2",
") 	c #F2F2F1",
"! 	c #F1F1F2",
"~ 	c #F3F3F3",
"{ 	c #F3F2F3",
"] 	c #F2F3F3",
"^ 	c #F3F3F2",
"/ 	c #CBCBCB",
"( 	c #ACABAB",
"_ 	c #979797",
": 	c #888988",
"< 	c #969797",
"[ 	c #ABACAC",
"} 	c #F2F2F2",
"| 	c #F3F2F2",
"1 	c #F2F3F2",
"2 	c #F4F4F4",
"3 	c #F5F5F4",
"4 	c #F5F4F4",
"5 	c #F4F5F4",
"6 	c #E6E6E6",
"7 	c #B3B2B2",
"8 	c #A1A1A1",
"9 	c #C2C2C2",
"0 	c #DEDEDE",
"a 	c #F1F0F1",
"b 	c #DEDFDE",
"c 	c #E6E7E6",
"d 	c #F5F4F5",
"e 	c #F4F5F5",
"f 	c #F4F4F5",
"g 	c #F6F6F6",
"h 	c #F5F6F6",
"i 	c #B3B2B3",
"j 	c #ACACAD",
"k 	c #E3E4E4",
"l 	c #F5F5F6",
"m 	c #F6F6F5",
"n 	c #F6F5F5",
"o 	c #E4E3E4",
"p 	c #F7F7F7",
"q 	c #F7F7F8",
"r 	c #F6F7F6",
"s 	c #CACACA",
"t 	c #A2A2A2",
"u 	c #E2E2E3",
"v 	c #F8F7F7",
"w 	c #F7F7F6",
"x 	c #F8F9F9",
"y 	c #F9F9F8",
"z 	c #F9F8F9",
"A 	c #ABABAB",
"B 	c #C0C0C0",
"C 	c #F5F3F5",
"D 	c #F7F8F8",
"E 	c #F9F9F9",
"F 	c #F8F8F9",
"G 	c #F8F8F8",
"H 	c #FAFBFB",
"I 	c #FAFBFA",
"J 	c #FAFAFA",
"K 	c #F0F1F1",
"L 	c #D9D9DB",
"M 	c #F0F0F2",
"N 	c #F7F9F8",
"O 	c #FBF9FB",
"P 	c #F9FAFA",
"Q 	c #F7F9F7",
"R 	c #F0F0F1",
"S 	c #FCFCFC",
"T 	c #8E8E8E",
"U 	c #F2F0F1",
"V 	c #8D8E8E",
"W 	c #FFFFFF",
"X 	c #999999",
"Y 	c #D5D5D5",
"Z 	c #ECECEC",
"` 	c #AAAAAA",
" .	c #BDBDBD",
"..	c #E5E5E6",
"+.	c #E9E9E9",
"@.	c #EDEDED",
"#.	c #EDEDEF",
"$.	c #F5F5F5",
"%.	c #C3C3C3",
"&.	c #D1D1D4",
"*.	c #E4E2E4",
"=.	c #E6E5E6",
"-.	c #E6E6E8",
";.	c #FBFBFB",
">.	c #E7E7E7",
",.	c #ACACAC",
"'.	c #A8A8A9",
").	c #D0D0D1",
"!.	c #DEDEE0",
"~.	c #E0E0E0",
"{.	c #E0E0E1",
"].	c #FEFEFE",
"^.	c #D7D7D7",
"/.	c #A0A0A1",
"(.	c #B7B7B9",
"_.	c #CCCCCF",
":.	c #D8D7D9",
"<.	c #BABABA",
"[.	c #A5A5A5",
"}.	c #909090",
"|.	c #C1C1C1",
"                                        ",
". + + + + @ + + + + + + + + + + + + + + ",
"# $ % % $ & $ % * = # & $ # - ; # % # - ",
"> > > , > ' > , , > > ) ! > > > > > ! > ",
"~ { ~ ] ^ ~ > / ( _ : < [ / ' ~ } | } 1 ",
"2 3 2 4 5 6 7 8 9 0 a b 9 8 7 c d e f 2 ",
"g h h g ^ i j k l g m g n o j i ] m h g ",
"p q p r s t u v p v p p v q u t s w p q ",
"x y z d A B C D E x F F E G C B A d x E ",
"H I J K _ L M p N J O P Q g M L _ R J J ",
"S S S = T 6 + ! C g g g d U + 6 V = S S ",
"W W W > X Y Z * ! 2 f 2 ! * Z Y X > W W ",
"W W W } `  ...+.Z @.#.@.Z +... .` } W W ",
"W W W $.%.8 &.*...=.-.=...*.&.8 %.$.W W ",
"W W W ;.>.,.'.).!.~.{.~.!.).'.,.>.;.W W ",
"W W W ].2 ^.A /.(._.:._.(./.A ^.2 ].W W ",
"W W W W S > ~.<.[._ }._ [.<.~.> S W W W ",
"W W W W W S 2 >.0 ^.Y ^.0 >.2 S W W W W ",
"W W W W W W ].;.$.} > } $.;.].W W W W W ",
"W W W W W W W W W W W W W W W W W W W W ",
"|.|.|.|.|.|.|.|.|.|.|.|.|.|.|.|.|.|.|.|."};
