/* XPM */
static char * stuckufcs_xpm[] = {
"20 21 136 2",
"  	c #DCDCDC",
". 	c #EEEFEE",
"+ 	c #EEEEEE",
"@ 	c #EEEEEF",
"# 	c #EFF0EF",
"$ 	c #F0EFF0",
"% 	c #F0F0F0",
"& 	c #EFF0F0",
"* 	c #EFEFF0",
"= 	c #EFEFEF",
"- 	c #F0F0EF",
"; 	c #F0EFEF",
"> 	c #F1F1F1",
", 	c #F1F2F1",
"' 	c #F1F0F1",
") 	c #D4D4D4",
"! 	c #BBBCBB",
"~ 	c #A9AAA9",
"{ 	c #9E9E9E",
"] 	c #A9A9A9",
"^ 	c #BCBCBB",
"/ 	c #D4D4D5",
"( 	c #F1F1F2",
"_ 	c #F3F3F3",
": 	c #F3F2F3",
"< 	c #F2F3F3",
"[ 	c #E9E9E9",
"} 	c #C1C1C1",
"| 	c #B5B5B5",
"1 	c #D1D1D1",
"2 	c #EAEAEA",
"3 	c #FBFBFB",
"4 	c #CCCCCC",
"5 	c #AAABAB",
"6 	c #B9B9B9",
"7 	c #F2F2F2",
"8 	c #F3F2F2",
"9 	c #F2F3F2",
"0 	c #F4F4F4",
"a 	c #F5F5F4",
"b 	c #C1C2C1",
"c 	c #BEBEC0",
"d 	c #EEEDED",
"e 	c #FFFFFF",
"f 	c #B6B5B6",
"g 	c #B2B1B1",
"h 	c #F5F4F5",
"i 	c #F4F5F5",
"j 	c #F4F4F5",
"k 	c #F6F6F6",
"l 	c #F5F6F6",
"m 	c #D5D5D5",
"n 	c #B6B6B5",
"o 	c #ECECED",
"p 	c #EDEDEE",
"q 	c #ABAAAB",
"r 	c #C4C3C4",
"s 	c #F3F4F4",
"t 	c #F6F6F5",
"u 	c #F7F7F7",
"v 	c #F7F7F8",
"w 	c #BCBDBC",
"x 	c #CDCDCD",
"y 	c #FCFBFC",
"z 	c #FEFEFE",
"A 	c #D0D0D0",
"B 	c #A8A7A7",
"C 	c #E6E6E6",
"D 	c #F8F8F7",
"E 	c #F8F9F9",
"F 	c #F9F9F8",
"G 	c #F2F1F2",
"H 	c #E3E3E4",
"I 	c #F8F8F9",
"J 	c #FCFCFC",
"K 	c #FDFEFD",
"L 	c #FFFEFF",
"M 	c #E6E5E6",
"N 	c #A0A09F",
"O 	c #DBDCDC",
"P 	c #F8F7F8",
"Q 	c #F9F9F9",
"R 	c #FAFBFB",
"S 	c #FAFBFA",
"T 	c #A2A2A2",
"U 	c #F5F5F5",
"V 	c #FAF9FA",
"W 	c #9D9D9E",
"X 	c #D4D3D4",
"Y 	c #FAFAFA",
"Z 	c #AAAAAA",
"` 	c #F3F3F4",
" .	c #F5F5F6",
"..	c #DFDFDF",
"+.	c #F8F8F8",
"@.	c #BABABA",
"#.	c #C3C3C3",
"$.	c #F2F2F3",
"%.	c #CBCBCB",
"&.	c #B4B4B4",
"*.	c #D7D7D7",
"=.	c #CFCFCF",
"-.	c #DBDBDD",
";.	c #EBEAEB",
">.	c #EDECED",
",.	c #DCDCDE",
"'.	c #B2B2B2",
").	c #C2C2C2",
"!.	c #EBEBEB",
"~.	c #B0B0B1",
"{.	c #DBDBDC",
"].	c #E7E7E8",
"^.	c #E8E8E8",
"/.	c #E8E8E9",
"(.	c #B8B8BA",
"_.	c #D3D3D3",
":.	c #ABABAB",
"<.	c #A7A7A8",
"[.	c #C4C4C6",
"}.	c #D8D8DA",
"|.	c #E2E1E3",
"1.	c #C6C6C7",
"2.	c #CACACA",
"3.	c #DEDEDE",
"4.	c #FDFDFD",
"5.	c #DDDDDD",
"6.	c #B6B6B6",
"7.	c #A3A3A4",
"8.	c #9E9E9F",
"9.	c #A6A5A6",
"0.	c #AEAEAF",
"a.	c #B9B9BA",
"b.	c #CDCDCE",
"c.	c #C9C9C9",
"d.	c #E3E3E3",
"e.	c #ECECEC",
"                                        ",
". + + + + @ + + + + + + + + + + + + + + ",
"# $ % % $ & $ % * = # & $ # - ; # % # - ",
"> > > , > ' ) ! ~ { ] ^ / % > > > > ( > ",
"_ : _ < [ } | 1 2 3 [ 4 5 6 [ _ 7 8 7 9 ",
"0 a 0 8 b c d e e e e e + f g . h i j 0 ",
"k l i m n o e e e e e e e p q r s t l k ",
"u v 0 w x y z e e e e e z y A B C D u v ",
"E F G q H I J K z L z K J I M N O P E Q ",
"R S > T = U P V 3 3 3 V P U = W X v Y Y ",
"J J 7 Z   > `  .u v u  .` > ..] A +.J J ",
"e e k @.#.o = > 7 $.7 > = o %.&.*.3 e e ",
"e e +.=.] -.;.o >.p >.o ;.,.'.)...3 e e ",
"e e J !.'.~.{.].^./.^.].{.(.| _.2 J e e ",
"e e z k   :.<.[.}.|.}.1.~.&.2.3.u z e e ",
"e e e 4.7 5.6.7.8.W 9.0.a.b.  > J e e e ",
"e e e e J _ C ) c.#.#.c.) d.0 3 z e e e ",
"e e e e e 4.Q > e.[ 2 e.7 u J z e e e e ",
"e e e e e e e z J 3 3 3 J z e e e e e e ",
"e e e e e e e e e e e e e e e e e e e e ",
"} } } } } } } } } } } } } } } } } } } } "};
