/* XPM */
static char * unshadepr_xpm[] = {
"20 21 63 1",
" 	c #DCDCDC",
".	c #EEEFEE",
"+	c #EEEEEE",
"@	c #EEEEEF",
"#	c #EFF0EF",
"$	c #F0EFF0",
"%	c #F0F0F0",
"&	c #EFF0F0",
"*	c #EFEFF0",
"=	c #EFEFEF",
"-	c #F0F0EF",
";	c #F0EFEF",
">	c #F1F1F1",
",	c #F1F2F1",
"'	c #F2F1F2",
")	c #F2F2F1",
"!	c #F1F1F2",
"~	c #F3F3F3",
"{	c #F3F2F3",
"]	c #F2F3F3",
"^	c #F3F3F2",
"/	c #F2F2F2",
"(	c #F3F2F2",
"_	c #F2F3F2",
":	c #F4F4F4",
"<	c #F5F5F4",
"[	c #F5F4F4",
"}	c #F4F5F4",
"|	c #F4F4F5",
"1	c #F5F4F5",
"2	c #F4F5F5",
"3	c #F6F6F6",
"4	c #F5F6F6",
"5	c #F6F6F5",
"6	c #F6F5F6",
"7	c #F5F5F6",
"8	c #F6F5F5",
"9	c #F7F7F7",
"0	c #F7F7F8",
"a	c #F7F8F7",
"b	c #F8F7F7",
"c	c #F8F8F8",
"d	c #F8F8F7",
"e	c #F8F9F9",
"f	c #F9F9F8",
"g	c #F9F8F9",
"h	c #F9F9F9",
"i	c #F8F8F9",
"j	c #FAFBFB",
"k	c #FAFBFA",
"l	c #FAFAFA",
"m	c #FBFAFA",
"n	c #FBFBFA",
"o	c #FBFBFB",
"p	c #FAFAFB",
"q	c #FBFAFB",
"r	c #FCFCFC",
"s	c #FBFCFC",
"t	c #FCFBFC",
"u	c #FCFBFB",
"v	c #FFFFFF",
"w	c #858585",
"x	c #C1C1C1",
"                    ",
".++++@++++++++++++++",
"#$%%$&$%*=#&$#-;#%#-",
">>>,>'>,,>>)!>>>>>!>",
"~{~]^~/{(~_]]~{~/(/_",
":<:[}:[|::1}:[[}12|:",
"34435674735386864543",
"909a99bb9b99b0cb9d90",
"efgghhheheiihhhfegeh",
"jkljmnlopoqjlllpqpll",
"rrrrrrrstrrrrurrsrrr",
"vvvvvvvvvvvvvvvvvvvv",
"vvvvvvvvvvvvvvvvvvvv",
"vvvvvvvwwwwwwvvvvvvv",
"vvvvvvvvwwwwvvvvvvvv",
"vvvvvvvvvwwvvvvvvvvv",
"vvvvvvvvvvvvvvvvvvvv",
"vvvvvvvvvvvvvvvvvvvv",
"vvvvvvvvvvvvvvvvvvvv",
"vvvvvvvvvvvvvvvvvvvv",
"xxxxxxxxxxxxxxxxxxxx"};
