/* XPM */
static char * bullet_xpm[] = {
"16 16 3 1",
" 	c None",
".	c #E1E1DD",
"+	c #8C8C89",
"                ",
"                ",
"                ",
"                ",
"                ",
"                ",
"                ",
"                ",
"     .......+   ",
"     .......+   ",
"     .......+   ",
"     ++++++++   ",
"                ",
"                ",
"                ",
"                "};
