/* XPM */
static char * closepr_xpm[] = {
"21 21 97 2",
"  	c #F9F9F6",
". 	c #FAF9F5",
"+ 	c #FAF9F6",
"@ 	c #F9F9F5",
"# 	c #F9FAF6",
"$ 	c #FAF9F7",
"% 	c #FAFAF6",
"& 	c #FAFAF7",
"* 	c #FBFAF8",
"= 	c #FAFAF8",
"- 	c #FAF9F8",
"; 	c #FBFAF7",
"> 	c #FBFBF7",
", 	c #FAFBF8",
"' 	c #FBFBF8",
") 	c #FBFBF9",
"! 	c #FAFBF9",
"~ 	c #F3F4F1",
"{ 	c #EDECEC",
"] 	c #F4F4F1",
"^ 	c #ECECEB",
"/ 	c #FBFAF9",
"( 	c #F5F4F1",
"_ 	c #B0B0AE",
": 	c #666565",
"< 	c #A7A7A6",
"[ 	c #E7E7E5",
"} 	c #F4F3F1",
"| 	c #FCFBF8",
"1 	c #FCFBF9",
"2 	c #FBFCF9",
"3 	c #E8E8E6",
"4 	c #565656",
"5 	c #FDFDFB",
"6 	c #333331",
"7 	c #969695",
"8 	c #FBFBFA",
"9 	c #FBFCFA",
"0 	c #FCFBFA",
"a 	c #E9E9E7",
"b 	c #525252",
"c 	c #2C2C2B",
"d 	c #E9E9E6",
"e 	c #FCFCFA",
"f 	c #F5F5F3",
"g 	c #A6A6A5",
"h 	c #303030",
"i 	c #FDFBFA",
"j 	c #FDFCFA",
"k 	c #FCFCFB",
"l 	c #DDDDDC",
"m 	c #747474",
"n 	c #222222",
"o 	c #FDFCFB",
"p 	c #F6F5F4",
"q 	c #A6A6A6",
"r 	c #F6F6F4",
"s 	c #FDFDFA",
"t 	c #FCFDFB",
"u 	c #E9EAE8",
"v 	c #535352",
"w 	c #FDFCFC",
"x 	c #FCFDFC",
"y 	c #FDFDFC",
"z 	c #EAE9E9",
"A 	c #969696",
"B 	c #EAEAE9",
"C 	c #FEFDFC",
"D 	c #FDFEFC",
"E 	c #F6F6F5",
"F 	c #B1B1B1",
"G 	c #666666",
"H 	c #A8A8A7",
"I 	c #EAE9E8",
"J 	c #E9E9E8",
"K 	c #A9A8A7",
"L 	c #B1B1B0",
"M 	c #F7F6F5",
"N 	c #FEFEFC",
"O 	c #FDFDFD",
"P 	c #FEFDFD",
"Q 	c #FEFEFD",
"R 	c #F7F6F6",
"S 	c #EFEFEE",
"T 	c #F6F6F6",
"U 	c #F6F7F5",
"V 	c #FDFEFD",
"W 	c #FEFEFE",
"X 	c #FFFEFE",
"Y 	c #FEFFFE",
"Z 	c #FEFFFD",
"` 	c #FFFFFE",
" .	c #FFFEFD",
"..	c #FEFEFF",
"+.	c #FFFFFF",
"@.	c #FFFEFF",
"#.	c #FEFFFF",
"    . +   +   + @   +         +       +   ",
"# $ + % &   + $ $ # + % + % + + % # + % % ",
"$ % & % $ & & $ $ % & & % & & + & $ & $ $ ",
"& & & & * & = & & - ; * & & = = & ; & & & ",
"; > , ' * ; = , ' * ; > ; = = ' = ' * = * ",
"* ' * ' ) * ! ~ { ] ' * ] ^ ] * * * ' * ' ",
") ) ) ' * / ( _ : < [ [ < : _ } ' ) | ' ' ",
"1 1 ) 2 1 1 3 4 5 6 7 7 6 5 4 3 1 ) 8 ) 8 ",
"9 1 1 0 8 9 a b 5 5 c c 5 5 b d 1 e 1 1 1 ",
"e 9 0 e 0 e f g h 5 5 5 5 h g f 0 e e e 0 ",
"i j j k k e e l m n 5 5 n m l e k e k e o ",
"e k k 5 k k p q h 5 5 5 5 h q r e s o o j ",
"k k 5 5 o t u v 5 5 c c 5 5 v u w 5 k t 5 ",
"w x o x y y z 4 5 6 A A 6 5 4 B y w w 5 y ",
"C y D y y y E F G H I J K G L M y N C O y ",
"N C D P y C Q R S T D C U S E Q y O V P D ",
"P Q Q Q P P V Q P Q V P P P P Q Q P Q P Q ",
"Q Q Q Q W W W Q Q W Q Q Q W Q Q Q X Q Q Q ",
"W W Y Y Z ` Y X Q X X X W X W Y W ` X W  .",
"..` ` W Y +.Y ..X @.Y X ` Y W #.X X +.#.#.",
"+.+.` +.+.+.+.+.+.+.+.` #.+.+.` #.@.+.+.+."};
