/* XPM */
static char * closeufcs_xpm[] = {
"21 21 85 1",
" 	c #F9F9F6",
".	c #FAF9F5",
"+	c #FAF9F6",
"@	c #F9F9F5",
"#	c #F9FAF6",
"$	c #FAF9F7",
"%	c #FAFAF6",
"&	c #FAFAF7",
"*	c #FBFAF8",
"=	c #FAFAF8",
"-	c #FAF9F8",
";	c #FBFAF7",
">	c #FBFBF7",
",	c #FAFBF8",
"'	c #FBFBF8",
")	c #FBFBF9",
"!	c #FAFBF9",
"~	c #FBFAF9",
"{	c #FCFBF8",
"]	c #F0F0EE",
"^	c #D6D5D4",
"/	c #F0EFED",
"(	c #F1EFED",
"_	c #D6D5D3",
":	c #FCFBF9",
"<	c #FBFCF9",
"[	c #CFCFCD",
"}	c #FDFDFB",
"|	c #BBBBBA",
"1	c #F1F0EE",
"2	c #F0F1EE",
"3	c #D0CFCD",
"4	c #FBFBFA",
"5	c #FBFCFA",
"6	c #FCFBFA",
"7	c #FCFCFA",
"8	c #B7B8B6",
"9	c #FCFCF9",
"0	c #F1F1EF",
"a	c #BBBBB9",
"b	c #BBBAB9",
"c	c #F1F0EF",
"d	c #FDFBFA",
"e	c #FDFCFA",
"f	c #FCFCFB",
"g	c #E5E5E4",
"h	c #AEAEAD",
"i	c #FDFCFB",
"j	c #F1F1F0",
"k	c #BBBCBA",
"l	c #BCBCBA",
"m	c #F2F2F0",
"n	c #FDFDFA",
"o	c #FCFDFB",
"p	c #D0D0CF",
"q	c #B9B8B7",
"r	c #B8B9B8",
"s	c #FDFCFC",
"t	c #FCFDFC",
"u	c #FDFDFC",
"v	c #D0D0D0",
"w	c #BDBDBC",
"x	c #F2F2F1",
"y	c #BDBCBB",
"z	c #FEFDFC",
"A	c #FDFEFC",
"B	c #F2F2F2",
"C	c #D7D7D6",
"D	c #F3F2F1",
"E	c #F2F3F1",
"F	c #FEFEFC",
"G	c #FDFDFD",
"H	c #FEFDFD",
"I	c #FEFEFD",
"J	c #FDFEFD",
"K	c #FEFEFE",
"L	c #FFFEFE",
"M	c #FEFFFE",
"N	c #FEFFFD",
"O	c #FFFFFE",
"P	c #FFFEFD",
"Q	c #FEFEFF",
"R	c #FFFFFF",
"S	c #FFFEFF",
"T	c #FEFFFF",
"  .+ + +@ +    +   + ",
"#$+%& +$$#+%+%++%#+%%",
"$%&%$&&$$%&&%&&+&$&$$",
"&&&&*&=&&-;*&&==&;&&&",
";>,'*;=,'*;>;=='='*=*",
"*'*')*!,~''*'='***'*'",
")))'*~{]^/''(_]*'){''",
"::)<::)[}|12|}3):)4)4",
"5::6457[}}88}}[9:7:::",
"75676770a}}}}bc767776",
"deeff777gh}}hgf7f7f7i",
"7ff}ffijk}}}}lm}7niie",
"ff}}ioop}}qr}}pos}fo}",
"stituusv}wmxy}vuuss}u",
"zuAuuuuBCxzuDCEzuFzGu",
"FzAHuzIHuGAzAuuIuGJHA",
"HIIIHHJIHIJHHHHIIHIHI",
"IIIIKKKIIKIIIKIIILIII",
"KKMMNOMLILLLKLKMKOLKP",
"QOOKMRMQLSMLOMKTLLRTT",
"RRORRRRRRRROTRROTSRRR"};
