/* XPM */
static char * closefcs_xpm[] = {
"21 21 81 1",
" 	c #F9F9F6",
".	c #FAF9F5",
"+	c #FAF9F6",
"@	c #F9F9F5",
"#	c #F9FAF6",
"$	c #FAF9F7",
"%	c #FAFAF6",
"&	c #FAFAF7",
"*	c #FBFAF8",
"=	c #FAFAF8",
"-	c #FAF9F8",
";	c #FBFAF7",
">	c #FBFBF7",
",	c #FAFBF8",
"'	c #FBFBF8",
")	c #FBFBF9",
"!	c #FAFBF9",
"~	c #FBFAF9",
"{	c #FCFBF8",
"]	c #DBDBDA",
"^	c #959594",
"/	c #DBDAD9",
"(	c #DCDAD9",
"_	c #959593",
":	c #FCFBF9",
"<	c #FBFCF9",
"[	c #858585",
"}	c #FDFDFB",
"|	c #5B5B5A",
"1	c #DCDBDA",
"2	c #DBDCDA",
"3	c #868585",
"4	c #FBFBFA",
"5	c #FBFCFA",
"6	c #FCFBFA",
"7	c #FCFCFA",
"8	c #535453",
"9	c #FCFCF9",
"0	c #DCDCDA",
"a	c #5A5A5A",
"b	c #FDFBFA",
"c	c #FDFCFA",
"d	c #FCFCFB",
"e	c #BDBDBC",
"f	c #424242",
"g	c #FDFCFB",
"h	c #DCDCDB",
"i	c #DDDDDB",
"j	c #FDFDFA",
"k	c #FCFDFB",
"l	c #878785",
"m	c #545453",
"n	c #545454",
"o	c #FDFCFC",
"p	c #FCFDFC",
"q	c #FDFDFC",
"r	c #878786",
"s	c #5C5C5C",
"t	c #DDDDDC",
"u	c #5C5C5B",
"v	c #FEFDFC",
"w	c #FDFEFC",
"x	c #DDDDDD",
"y	c #979796",
"z	c #DEDDDC",
"A	c #DDDEDC",
"B	c #FEFEFC",
"C	c #FDFDFD",
"D	c #FEFDFD",
"E	c #FEFEFD",
"F	c #FDFEFD",
"G	c #FEFEFE",
"H	c #FFFEFE",
"I	c #FEFFFE",
"J	c #FEFFFD",
"K	c #FFFFFE",
"L	c #FFFEFD",
"M	c #FEFEFF",
"N	c #FFFFFF",
"O	c #FFFEFF",
"P	c #FEFFFF",
"  .+ + +@ +    +   + ",
"#$+%& +$$#+%+%++%#+%%",
"$%&%$&&$$%&&%&&+&$&$$",
"&&&&*&=&&-;*&&==&;&&&",
";>,'*;=,'*;>;=='='*=*",
"*'*')*!,~''*'='***'*'",
")))'*~{]^/''(_]*'){''",
"::)<::)[}|12|}3):)4)4",
"5::6457[}}88}}[9:7:::",
"75676770a}}}}a1767776",
"bccdd777ef}}fed7d7d7g",
"7dd}ddgha}}}}ai}7jggc",
"dd}}gkkl}}mn}}lko}dk}",
"opgpqqor}situ}rqqoo}q",
"vqwqqqqxytvqzyAvqBvCq",
"BvwDqvEDqCwvwqqEqCFDw",
"DEEEDDFEDEFDDDDEEDEDE",
"EEEEGGGEEGEEEGEEEHEEE",
"GGIIJKIHEHHHGHGIGKHGL",
"MKKGINIMHOIHKIGPHHNPP",
"NNKNNNNNNNNKPNNKPONNN"};
