/* XPM */
static char * maxfcs_xpm[] = {
"21 21 95 2",
"  	c #F9F9F6",
". 	c #FAF9F5",
"+ 	c #FAF9F6",
"@ 	c #F9F9F5",
"# 	c #F9FAF6",
"$ 	c #FAF9F7",
"% 	c #FAFAF6",
"& 	c #FAFAF7",
"* 	c #FBFAF8",
"= 	c #FAFAF8",
"- 	c #FAF9F8",
"; 	c #FBFAF7",
"> 	c #FBFBF7",
", 	c #FAFBF8",
"' 	c #FBFBF8",
") 	c #FBFBF9",
"! 	c #FAFBF9",
"~ 	c #FBFAF9",
"{ 	c #F6F6F3",
"] 	c #EEEEEB",
"^ 	c #EEEDEB",
"/ 	c #FCFBF8",
"( 	c #F3F2F1",
"_ 	c #CCCBC9",
": 	c #8E8E8D",
"< 	c #F3F2F0",
"[ 	c #FCFBF9",
"} 	c #FBFCF9",
"| 	c #F3F3F1",
"1 	c #C7C7C4",
"2 	c #696968",
"3 	c #FDFDFB",
"4 	c #C6C6C4",
"5 	c #F4F3F1",
"6 	c #FBFBFA",
"7 	c #FBFCFA",
"8 	c #FCFBFA",
"9 	c #F7F7F5",
"0 	c #CDCDCB",
"a 	c #6A6A69",
"b 	c #F7F7F4",
"c 	c #FCFCFA",
"d 	c #A1A19F",
"e 	c #A1A09F",
"f 	c #FDFBFA",
"g 	c #FDFCFA",
"h 	c #FCFCFB",
"i 	c #F8F8F6",
"j 	c #D2D2D1",
"k 	c #898988",
"l 	c #535353",
"m 	c #D2D2D2",
"n 	c #FDFCFB",
"o 	c #F7F7F6",
"p 	c #DFE0DE",
"q 	c #777776",
"r 	c #777777",
"s 	c #E0E0DE",
"t 	c #FDFDFA",
"u 	c #FCFDFB",
"v 	c #ECEBEB",
"w 	c #7E7E7E",
"x 	c #EBECEA",
"y 	c #FDFCFC",
"z 	c #FCFDFC",
"A 	c #FDFDFC",
"B 	c #EEEFEE",
"C 	c #8F8F8E",
"D 	c #8F8E8E",
"E 	c #EFEFEE",
"F 	c #FEFDFC",
"G 	c #FDFEFC",
"H 	c #FDFDFD",
"I 	c #F8F8F7",
"J 	c #D1D1D0",
"K 	c #90908F",
"L 	c #D2D1D0",
"M 	c #FEFEFC",
"N 	c #FEFDFD",
"O 	c #FEFEFD",
"P 	c #F8F8F8",
"Q 	c #F0F1EF",
"R 	c #F1F0EF",
"S 	c #F8F9F7",
"T 	c #FDFEFD",
"U 	c #FEFEFE",
"V 	c #FFFEFE",
"W 	c #FEFFFE",
"X 	c #FEFFFD",
"Y 	c #FFFFFE",
"Z 	c #FFFEFD",
"` 	c #FEFEFF",
" .	c #FFFFFF",
"..	c #FFFEFF",
"+.	c #FEFFFF",
"    . +   +   + @   +         +       +   ",
"# $ + % &   + $ $ # + % + % + + % # + % % ",
"$ % & % $ & & $ $ % & & % & & + & $ & $ $ ",
"& & & & * & = & & - ; * & & = = & ; & & & ",
"; > , ' * ; = , ' * ; > ; = = ' = ' * = * ",
"* ' * ' ) * ! , ~ { ] ^ { = ' * * * ' * ' ",
") ) ) ' * ~ / ) ( _ : : _ < ) * ' ) / ' ' ",
"[ [ ) } [ [ ) | 1 2 3 3 2 4 5 ) [ ) 6 ) 6 ",
"7 [ [ 8 6 7 9 0 a 3 3 3 3 a 0 b [ c [ [ [ ",
"c 7 8 c 8 c | d 3 3 3 3 3 3 e | 8 c c c 8 ",
"f g g h h c i j k l 3 3 l k m i h c h c n ",
"c h h 3 h h n o p q 3 3 r s i 3 c t n n g ",
"h h 3 3 n u u 3 v w 3 3 w x 3 u y 3 h u 3 ",
"y z n z A A y A B C 3 3 D E A A A y y 3 A ",
"F A G A A A A H I J K K L I G F A M F H A ",
"M F G N A F O N A P Q R S A A O A H T N G ",
"N O O O N N T O N O T N N N N O O N O N O ",
"O O O O U U U O O U O O O U O O O V O O O ",
"U U W W X Y W V O V V V U V U W U Y V U Z ",
"` Y Y U W  .W ` V ..W V Y W U +.V V  .+.+.",
" . .Y  . . . . . . . .Y +. . .Y +... . . ."};
