/* XPM */
static char * maxpr_xpm[] = {
"21 21 91 1",
" 	c #F9F9F6",
".	c #FAF9F5",
"+	c #FAF9F6",
"@	c #F9F9F5",
"#	c #F9FAF6",
"$	c #FAF9F7",
"%	c #FAFAF6",
"&	c #FAFAF7",
"*	c #FBFAF8",
"=	c #FAFAF8",
"-	c #FAF9F8",
";	c #FBFAF7",
">	c #FBFBF7",
",	c #FAFBF8",
"'	c #FBFBF8",
")	c #FBFBF9",
"!	c #FAFBF9",
"~	c #FBFAF9",
"{	c #E8E8E6",
"]	c #CDCDCB",
"^	c #CDCCCB",
"/	c #FCFBF8",
"(	c #D0CFCE",
"_	c #807F7F",
":	c #4D4D4A",
"<	c #FCFBF9",
"[	c #FBFCF9",
"}	c #D0D0CE",
"|	c #7B7B7B",
"1	c #383835",
"2	c #FDFDFB",
"3	c #D1D0CE",
"4	c #FBFBFA",
"5	c #FBFCFA",
"6	c #FCFBFA",
"7	c #F7F7F5",
"8	c #898989",
"9	c #393936",
"0	c #F7F7F4",
"a	c #FCFCFA",
"b	c #F3F3F1",
"c	c #5F5F5E",
"d	c #5F5E5E",
"e	c #FDFBFA",
"f	c #FDFCFA",
"g	c #FCFCFB",
"h	c #F8F8F6",
"i	c #969695",
"j	c #4C4C48",
"k	c #2C2C2A",
"l	c #FDFCFB",
"m	c #E9E9E8",
"n	c #9D9E9D",
"o	c #40403E",
"p	c #9E9E9D",
"q	c #EAEAE8",
"r	c #FDFDFA",
"s	c #FCFDFB",
"t	c #C3C2B8",
"u	c #434342",
"v	c #C2C3B7",
"w	c #FDFCFC",
"x	c #FCFDFC",
"y	c #FDFDFC",
"z	c #C3C4C3",
"A	c #4D4D4D",
"B	c #C4C4C3",
"C	c #FEFDFC",
"D	c #FDFEFC",
"E	c #FDFDFD",
"F	c #EAEAE9",
"G	c #909088",
"H	c #4E4E4C",
"I	c #FEFEFC",
"J	c #FEFDFD",
"K	c #FEFEFD",
"L	c #F8F8F8",
"M	c #F0F1EF",
"N	c #F1F0EF",
"O	c #F8F9F7",
"P	c #FDFEFD",
"Q	c #FEFEFE",
"R	c #FFFEFE",
"S	c #FEFFFE",
"T	c #FEFFFD",
"U	c #FFFFFE",
"V	c #FFFEFD",
"W	c #FEFEFF",
"X	c #FFFFFF",
"Y	c #FFFEFF",
"Z	c #FEFFFF",
"  .+ + +@ +    +   + ",
"#$+%& +$$#+%+%++%#+%%",
"$%&%$&&$$%&&%&&+&$&$$",
"&&&&*&=&&-;*&&==&;&&&",
";>,'*;=,'*;>;=='='*=*",
"*'*')*!,~{]^{='***'*'",
")))'*~/)(_::_()*')/''",
"<<)[<<)}|1221|3)<)4)4",
"5<<6457892222980<a<<<",
"a56a6abc222222db6aaa6",
"effggahijk22kjihgagal",
"agg2gglmno22opq2arllf",
"gg22lss2tu22uv2sw2gs2",
"wxlxyywyzA22AByyyww2y",
"CyDyyyyEFGHHGFDCyICEy",
"ICDJyCKJyLMNOyyKyEPJD",
"JKKKJJPKJKPJJJJKKJKJK",
"KKKKQQQKKQKKKQKKKRKKK",
"QQSSTUSRKRRRQRQSQURQV",
"WUUQSXSWRYSRUSQZRRXZZ",
"XXUXXXXXXXXUZXXUZYXXX"};
