/* XPM */
static char * maxufcs_xpm[] = {
"21 21 73 1",
" 	c #F9F9F6",
".	c #FAF9F5",
"+	c #FAF9F6",
"@	c #F9F9F5",
"#	c #F9FAF6",
"$	c #FAF9F7",
"%	c #FAFAF6",
"&	c #FAFAF7",
"*	c #FBFAF8",
"=	c #FAFAF8",
"-	c #FAF9F8",
";	c #FBFAF7",
">	c #FBFBF7",
",	c #FAFBF8",
"'	c #FBFBF8",
")	c #FBFBF9",
"!	c #FAFBF9",
"~	c #FBFAF9",
"{	c #FCFBF8",
"]	c #F0EFED",
"^	c #CFCFCC",
"/	c #F1EFED",
"(	c #FCFBF9",
"_	c #FBFCF9",
":	c #F1F1EE",
"<	c #BABAB9",
"[	c #FDFDFB",
"}	c #F0F0EE",
"|	c #FBFBFA",
"1	c #FBFCFA",
"2	c #FCFBFA",
"3	c #FCFCFA",
"4	c #BBBCBA",
"5	c #BCBCBA",
"6	c #FCFCF9",
"7	c #D6D6D5",
"8	c #FDFBFA",
"9	c #FDFCFA",
"0	c #FCFCFB",
"a	c #F1F1EF",
"b	c #D0D0CF",
"c	c #B5B5B3",
"d	c #F1F1F0",
"e	c #FDFCFB",
"f	c #FCFDFB",
"g	c #C9C9C7",
"h	c #C9C9C8",
"i	c #FDFDFA",
"j	c #FDFCFC",
"k	c #CACAC9",
"l	c #FCFDFC",
"m	c #FDFDFC",
"n	c #D0D0D0",
"o	c #FEFDFC",
"p	c #FDFEFC",
"q	c #FDFDFD",
"r	c #F2F2F1",
"s	c #D1D0D0",
"t	c #F3F2F1",
"u	c #FEFEFC",
"v	c #FEFDFD",
"w	c #FEFEFD",
"x	c #FDFEFD",
"y	c #FEFEFE",
"z	c #FFFEFE",
"A	c #FEFFFE",
"B	c #FEFFFD",
"C	c #FFFFFE",
"D	c #FFFEFD",
"E	c #FEFEFF",
"F	c #FFFFFF",
"G	c #FFFEFF",
"H	c #FEFFFF",
"  .+ + +@ +    +   + ",
"#$+%& +$$#+%+%++%#+%%",
"$%&%$&&$$%&&%&&+&$&$$",
"&&&&*&=&&-;*&&==&;&&&",
";>,'*;=,'*;>;=='='*=*",
"*'*')*!,~''*'='***'*'",
")))'*~{)~]^^/*)*'){''",
"(()_(()):<[[<}()()|)|",
"1((2|13}4[[[[5}6(3(((",
"31232337[[[[[[7323332",
"8990033abc[[cbd30303e",
"300[00e0fg[[h[[[3iee9",
"00[[eff[jk[[kf[fj[0f[",
"jlelmmjmln[[bmmmmjj[m",
"ompmmmmqmrsntmpomuoqm",
"uopvmowvmqpopmmwmqxvp",
"vwwwvvxwvwxvvvvwwvwvw",
"wwwwyyywwywwwywwwzwww",
"yyAABCAzwzzzyzyAyCzyD",
"ECCyAFAEzGAzCAyHzzFHH",
"FFCFFFFFFFFCHFFCHGFFF"};
