/* XPM */
static char * menuiconufcs_xpm[] = {
"21 21 95 2",
"  	c #F9F9F6",
". 	c #FAF9F5",
"+ 	c #FAF9F6",
"@ 	c #F9F9F5",
"# 	c #F9FAF6",
"$ 	c #FAF9F7",
"% 	c #FAFAF6",
"& 	c #FAFAF7",
"* 	c #FBFAF8",
"= 	c #FAFAF8",
"- 	c #FAF9F8",
"; 	c #FBFAF7",
"> 	c #FBFBF7",
", 	c #FAFBF8",
"' 	c #FBFBF8",
") 	c #DEDEDC",
"! 	c #8F8F8E",
"~ 	c #81807F",
"{ 	c #7E7F7E",
"] 	c #7E7F7D",
"^ 	c #7F7E7E",
"/ 	c #7F7F7D",
"( 	c #7F7E7D",
"_ 	c #7E7E7D",
": 	c #8F8E8D",
"< 	c #FBFBF9",
"[ 	c #9C9C9A",
"} 	c #FDFDFB",
"| 	c #FCFBF8",
"1 	c #FCFBF9",
"2 	c #DEDFDD",
"3 	c #818180",
"4 	c #7F7F7E",
"5 	c #DEDEDD",
"6 	c #FBFBFA",
"7 	c #FBFCFA",
"8 	c #FCFBFA",
"9 	c #F8F8F6",
"0 	c #F7F7F5",
"a 	c #F7F8F5",
"b 	c #F8F7F5",
"c 	c #F7F8F6",
"d 	c #F8F7F6",
"e 	c #FCFCF9",
"f 	c #FCFCFA",
"g 	c #DFDFDE",
"h 	c #FDFBFA",
"i 	c #FDFCFA",
"j 	c #9C9C9C",
"k 	c #9C9C9B",
"l 	c #FCFCFB",
"m 	c #FDFCFB",
"n 	c #E0E0DE",
"o 	c #8F8F8F",
"p 	c #818181",
"q 	c #807F7F",
"r 	c #7F7F7F",
"s 	c #7F807F",
"t 	c #807F7E",
"u 	c #80807F",
"v 	c #828281",
"w 	c #FCFDFB",
"x 	c #F8F9F7",
"y 	c #F9F9F7",
"z 	c #F9F8F8",
"A 	c #F9F8F7",
"B 	c #F8F9F8",
"C 	c #FDFCFC",
"D 	c #FCFDFC",
"E 	c #DFE0DF",
"F 	c #90908F",
"G 	c #E0DFDF",
"H 	c #FDFDFC",
"I 	c #FEFDFC",
"J 	c #FDFEFC",
"K 	c #9D9D9C",
"L 	c #FDFDFD",
"M 	c #FEFEFC",
"N 	c #E1E0E0",
"O 	c #808080",
"P 	c #828282",
"Q 	c #E0E0E0",
"R 	c #FDFEFD",
"S 	c #FEFDFD",
"T 	c #FEFEFD",
"U 	c #FEFEFE",
"V 	c #FFFEFE",
"W 	c #FEFFFE",
"X 	c #FEFFFD",
"Y 	c #FFFFFE",
"Z 	c #FFFEFD",
"` 	c #FEFEFF",
" .	c #FFFFFF",
"..	c #FFFEFF",
"+.	c #FEFFFF",
"    . +   +   + @   +         +       +   ",
"# $ + % &   + $ $ # + % + % + + % # + % % ",
"$ % & % $ & & $ $ % & & % & & + & $ & $ $ ",
"& & & & * & = & & - ; * & & = = & ; & & & ",
"; > , ' * ; = , ' * ; > ; = = ' = ' * = * ",
"* ' * ) ! ~ { ] ^ / / ( / _ / ~ : ) ' * ' ",
"< < < [ } } } } } } } } } } } } } [ | ' ' ",
"1 1 < 2 ! 3 4 4 4 4 4 4 4 4 4 3 ! 5 6 < 6 ",
"7 1 1 8 6 7 9 0 a b c c d 9 0 e 1 f 1 1 1 ",
"f 7 8 g ! 3 4 4 4 4 4 4 4 4 4 3 ! g f f 8 ",
"h i i j } } } } } } } } } } } } } k l f m ",
"f l l n o p q r s t r q r u u v ! n m m i ",
"l l } } m w x y z y A B A x y w C } l w } ",
"C D m E F v q u s u u u q u u v F G C } H ",
"I H J K } } } } } } } } } } } } } K I L H ",
"M I J N F v O O u O u u u u u P F Q R S J ",
"S T T T S S R T S T R S S S S T T S T S T ",
"T T T T U U U T T U T T T U T T T V T T T ",
"U U W W X Y W V T V V V U V U W U Y V U Z ",
"` Y Y U W  .W ` V ..W V Y W U +.V V  .+.+.",
" . .Y  . . . . . . . .Y +. . .Y +... . . ."};
