/* XPM */
static char * minfcs_xpm[] = {
"21 21 93 2",
"  	c #F9F9F6",
". 	c #FAF9F5",
"+ 	c #FAF9F6",
"@ 	c #F9F9F5",
"# 	c #F9FAF6",
"$ 	c #FAF9F7",
"% 	c #FAFAF6",
"& 	c #FAFAF7",
"* 	c #FBFAF8",
"= 	c #FAFAF8",
"- 	c #FAF9F8",
"; 	c #FBFAF7",
"> 	c #FBFBF7",
", 	c #FAFBF8",
"' 	c #FBFBF8",
") 	c #FBFBF9",
"! 	c #FAFBF9",
"~ 	c #FBFAF9",
"{ 	c #F6F6F3",
"] 	c #EEEEEB",
"^ 	c #EEEDEB",
"/ 	c #FCFBF8",
"( 	c #F6F5F4",
"_ 	c #D0CFCD",
": 	c #8E8E8D",
"< 	c #F6F5F3",
"[ 	c #FCFBF9",
"} 	c #FBFCF9",
"| 	c #FDFDFB",
"1 	c #EDEDEB",
"2 	c #FBFBFA",
"3 	c #FBFCFA",
"4 	c #FCFBFA",
"5 	c #FCFCFA",
"6 	c #EAEBE8",
"7 	c #7E7E7C",
"8 	c #7E7E7D",
"9 	c #EBEBE9",
"0 	c #FCFCF9",
"a 	c #F7F7F5",
"b 	c #DFDFDE",
"c 	c #777776",
"d 	c #DFDEDE",
"e 	c #F7F6F5",
"f 	c #FDFBFA",
"g 	c #FDFCFA",
"h 	c #FCFCFB",
"i 	c #F8F8F6",
"j 	c #D2D2D1",
"k 	c #898988",
"l 	c #535353",
"m 	c #D2D2D2",
"n 	c #FDFCFB",
"o 	c #F4F3F2",
"p 	c #A1A1A0",
"q 	c #A2A2A0",
"r 	c #F4F4F2",
"s 	c #FDFDFA",
"t 	c #FCFDFB",
"u 	c #F7F8F6",
"v 	c #CECECD",
"w 	c #6B6A6A",
"x 	c #6A6B6A",
"y 	c #FDFCFC",
"z 	c #FCFDFC",
"A 	c #FDFDFC",
"B 	c #F5F5F4",
"C 	c #C7C7C7",
"D 	c #696969",
"E 	c #FEFDFC",
"F 	c #FDFEFC",
"G 	c #FDFDFD",
"H 	c #CDCDCC",
"I 	c #90908F",
"J 	c #CECDCC",
"K 	c #FEFEFC",
"L 	c #FEFDFD",
"M 	c #FEFEFD",
"N 	c #F8F8F8",
"O 	c #F0F1EF",
"P 	c #F1F0EF",
"Q 	c #F8F9F7",
"R 	c #FDFEFD",
"S 	c #FEFEFE",
"T 	c #FFFEFE",
"U 	c #FEFFFE",
"V 	c #FEFFFD",
"W 	c #FFFFFE",
"X 	c #FFFEFD",
"Y 	c #FEFEFF",
"Z 	c #FFFFFF",
"` 	c #FFFEFF",
" .	c #FEFFFF",
"    . +   +   + @   +         +       +   ",
"# $ + % &   + $ $ # + % + % + + % # + % % ",
"$ % & % $ & & $ $ % & & % & & + & $ & $ $ ",
"& & & & * & = & & - ; * & & = = & ; & & & ",
"; > , ' * ; = , ' * ; > ; = = ' = ' * = * ",
"* ' * ' ) * ! , ~ { ] ^ { = ' * * * ' * ' ",
") ) ) ' * ~ / ) ( _ : : _ < ) * ' ) / ' ' ",
"[ [ ) } [ [ ) ) ] : | | : 1 [ ) [ ) 2 ) 2 ",
"3 [ [ 4 2 3 5 ) 6 7 | | 8 9 ) 0 [ 5 [ [ [ ",
"5 3 4 5 4 5 5 a b c | | c d e 5 4 5 5 5 4 ",
"f g g h h 5 i j k l | | l k m i h 5 h 5 n ",
"5 h h | h h o p | | | | | | q r 5 s n n g ",
"h h | | n t u v w | | | | x v u y | h t | ",
"y z n z A A y B C D | | D C B A A y y | A ",
"E A F A A A A G B H I I J B F E A K E G A ",
"K E F L A E M L A N O P Q A A M A G R L F ",
"L M M M L L R M L M R L L L L M M L M L M ",
"M M M M S S S M M S M M M S M M M T M M M ",
"S S U U V W U T M T T T S T S U S W T S X ",
"Y W W S U Z U Y T ` U T W U S  .T T Z  . .",
"Z Z W Z Z Z Z Z Z Z Z W  .Z Z W  .` Z Z Z "};
