/* XPM */
static char * minpr_xpm[] = {
"21 21 91 1",
" 	c #F9F9F6",
".	c #FAF9F5",
"+	c #FAF9F6",
"@	c #F9F9F5",
"#	c #F9FAF6",
"$	c #FAF9F7",
"%	c #FAFAF6",
"&	c #FAFAF7",
"*	c #FBFAF8",
"=	c #FAFAF8",
"-	c #FAF9F8",
";	c #FBFAF7",
">	c #FBFBF7",
",	c #FAFBF8",
"'	c #FBFBF8",
")	c #FBFBF9",
"!	c #FAFBF9",
"~	c #FBFAF9",
"{	c #F6F6F3",
"]	c #EEEEEB",
"^	c #EEEDEB",
"/	c #FCFBF8",
"(	c #E8E7E7",
"_	c #8F8F87",
":	c #4E4E4C",
"<	c #908F87",
"[	c #E8E7E6",
"}	c #FCFBF9",
"|	c #FBFCF9",
"1	c #C3C3C1",
"2	c #4D4D4D",
"3	c #FDFDFB",
"4	c #C2C2C1",
"5	c #FBFBFA",
"6	c #FBFCFA",
"7	c #FCFBFA",
"8	c #FCFCFA",
"9	c #C1C2B6",
"0	c #434342",
"a	c #C2C2B7",
"b	c #FCFCF9",
"c	c #E9E9E7",
"d	c #9D9D9D",
"e	c #40403E",
"f	c #E9E8E7",
"g	c #FDFBFA",
"h	c #FDFCFA",
"i	c #FCFCFB",
"j	c #F8F8F6",
"k	c #969695",
"l	c #4C4C48",
"m	c #2C2C2A",
"n	c #FDFCFB",
"o	c #F4F3F2",
"p	c #5F5F5E",
"q	c #F4F4F2",
"r	c #FDFDFA",
"s	c #FCFDFB",
"t	c #F7F8F6",
"u	c #8A8A89",
"v	c #393936",
"w	c #FDFCFC",
"x	c #FCFDFC",
"y	c #FDFDFC",
"z	c #D1D1D1",
"A	c #7B7C7B",
"B	c #383835",
"C	c #7C7C7B",
"D	c #FEFDFC",
"E	c #FDFEFC",
"F	c #FDFDFD",
"G	c #808080",
"H	c #4D4D4A",
"I	c #FEFEFC",
"J	c #FEFDFD",
"K	c #FEFEFD",
"L	c #EAEAEA",
"M	c #CECFCE",
"N	c #CFCECE",
"O	c #EAEBE9",
"P	c #FDFEFD",
"Q	c #FEFEFE",
"R	c #FFFEFE",
"S	c #FEFFFE",
"T	c #FEFFFD",
"U	c #FFFFFE",
"V	c #FFFEFD",
"W	c #FEFEFF",
"X	c #FFFFFF",
"Y	c #FFFEFF",
"Z	c #FEFFFF",
"  .+ + +@ +    +   + ",
"#$+%& +$$#+%+%++%#+%%",
"$%&%$&&$$%&&%&&+&$&$$",
"&&&&*&=&&-;*&&==&;&&&",
";>,'*;=,'*;>;=='='*=*",
"*'*')*!,~{]^{='***'*'",
")))'*~/)(_::<[)*')/''",
"}})|}}))123324})})5)5",
"6}}7568)90330a)b}8}}}",
"8678788cde33edf878887",
"ghhii8jklm33mlkji8i8n",
"8ii3iiop333333pq8rnnh",
"ii33nstuv3333vutw3is3",
"wxnxyywzAB33BCzyyww3y",
"DyEyyyyFzGHHGzEDyIDFy",
"IDEJyDKJyLMNOyyKyFPJE",
"JKKKJJPKJKPJJJJKKJKJK",
"KKKKQQQKKQKKKQKKKRKKK",
"QQSSTUSRKRRRQRQSQURQV",
"WUUQSXSWRYSRUSQZRRXZZ",
"XXUXXXXXXXXUZXXUZYXXX"};
