/* XPM */
static char * minufcs_xpm[] = {
"21 21 76 1",
" 	c #F9F9F6",
".	c #FAF9F5",
"+	c #FAF9F6",
"@	c #F9F9F5",
"#	c #F9FAF6",
"$	c #FAF9F7",
"%	c #FAFAF6",
"&	c #FAFAF7",
"*	c #FBFAF8",
"=	c #FAFAF8",
"-	c #FAF9F8",
";	c #FBFAF7",
">	c #FBFBF7",
",	c #FAFBF8",
"'	c #FBFBF8",
")	c #FBFBF9",
"!	c #FAFBF9",
"~	c #FBFAF9",
"{	c #FCFBF8",
"]	c #F0EFED",
"^	c #CFCFCC",
"/	c #F1EFED",
"(	c #FCFBF9",
"_	c #FBFCF9",
":	c #FCFCF9",
"<	c #CFCFCD",
"[	c #FDFDFB",
"}	c #FBFBFA",
"|	c #FBFCFA",
"1	c #FCFBFA",
"2	c #FCFCFA",
"3	c #CAC9C7",
"4	c #CAC9C8",
"5	c #C9C9C7",
"6	c #FDFBFA",
"7	c #FDFCFA",
"8	c #FCFCFB",
"9	c #F1F1EF",
"0	c #D0D0CF",
"a	c #B5B5B3",
"b	c #F1F1F0",
"c	c #FDFCFB",
"d	c #D6D6D6",
"e	c #D7D7D6",
"f	c #FDFDFA",
"g	c #FCFDFB",
"h	c #F2F2F0",
"i	c #BDBCBC",
"j	c #BCBDBB",
"k	c #FDFCFC",
"l	c #FCFDFC",
"m	c #FDFDFC",
"n	c #F1F2F1",
"o	c #BCBCBB",
"p	c #BCBBBA",
"q	c #F2F2F1",
"r	c #FEFDFC",
"s	c #FDFEFC",
"t	c #FDFDFD",
"u	c #D1D0D0",
"v	c #D0D0D0",
"w	c #F3F2F1",
"x	c #FEFEFC",
"y	c #FEFDFD",
"z	c #FEFEFD",
"A	c #FDFEFD",
"B	c #FEFEFE",
"C	c #FFFEFE",
"D	c #FEFFFE",
"E	c #FEFFFD",
"F	c #FFFFFE",
"G	c #FFFEFD",
"H	c #FEFEFF",
"I	c #FFFFFF",
"J	c #FFFEFF",
"K	c #FEFFFF",
"  .+ + +@ +    +   + ",
"#$+%& +$$#+%+%++%#+%%",
"$%&%$&&$$%&&%&&+&$&$$",
"&&&&*&=&&-;*&&==&;&&&",
";>,'*;=,'*;>;=='='*=*",
"*'*')*!,~''*'='***'*'",
")))'*~{)~]^^/*)*'){''",
"(()_(()):<[[<)()()})}",
"|((1}|2)_3[[42):(2(((",
"2|12122225[[511212221",
"677882290a[[a0b28282c",
"288[88cd[[[[[[e[2fcc7",
"88[[cgghi[[[[jhgk[8g[",
"klclmmkmno[[pqmmmkk[m",
"rmsmmmmtmquvwmsrmxrtm",
"xrsymrzymtsrsmmzmtAys",
"yzzzyyAzyzAyyyyzzyzyz",
"zzzzBBBzzBzzzBzzzCzzz",
"BBDDEFDCzCCCBCBDBFCBG",
"HFFBDIDHCJDCFDBKCCIKK",
"IIFIIIIIIIIFKIIFKJIII"};
