/* XPM */
static char * shadefcs_xpm[] = {
"21 21 56 1",
" 	c #F9F9F6",
".	c #FAF9F5",
"+	c #FAF9F6",
"@	c #F9F9F5",
"#	c #F9FAF6",
"$	c #FAF9F7",
"%	c #FAFAF6",
"&	c #FAFAF7",
"*	c #FBFAF8",
"=	c #FAFAF8",
"-	c #FAF9F8",
";	c #FBFAF7",
">	c #FBFBF7",
",	c #FAFBF8",
"'	c #FBFBF8",
")	c #FBFBF9",
"!	c #FAFBF9",
"~	c #FBFAF9",
"{	c #FCFBF8",
"]	c #FCFAF8",
"^	c #FCFBF9",
"/	c #FBFCF9",
"(	c #FCFCF9",
"_	c #FBFBFA",
":	c #FBFCFA",
"<	c #FCFBFA",
"[	c #FCFCFA",
"}	c #FDFBFA",
"|	c #FDFCFA",
"1	c #FCFCFB",
"2	c #4D4D4D",
"3	c #FDFCFB",
"4	c #FDFDFB",
"5	c #FCFDFB",
"6	c #4D4D4E",
"7	c #FDFDFA",
"8	c #FCFDFC",
"9	c #FDFCFC",
"0	c #FDFDFC",
"a	c #FEFDFC",
"b	c #FDFEFC",
"c	c #FDFDFD",
"d	c #FEFEFC",
"e	c #FEFDFD",
"f	c #FEFEFD",
"g	c #FDFEFD",
"h	c #FEFEFE",
"i	c #FFFEFE",
"j	c #FEFFFE",
"k	c #FEFFFD",
"l	c #FFFFFE",
"m	c #FFFEFD",
"n	c #FEFEFF",
"o	c #FFFFFF",
"p	c #FFFEFF",
"q	c #FEFFFF",
"  .+ + +@ +    +   + ",
"#$+%& +$$#+%+%++%#+%%",
"$%&%$&&$$%&&%&&+&$&$$",
"&&&&*&=&&-;*&&==&;&&&",
";>,'*;=,'*;>;=='='*=*",
"*'*')*!,~''*'='***'*'",
")))'*~{)~*'']*)*'){''",
"^^)/^^))()^/))^)^)_)_",
":^^<_:[)/^::<[)(^[^^^",
"[:<[<[[[[[[<[<<[<[[[<",
"}||11[[[1[22[11[1[1[3",
"[114113152136444[733|",
"114435546438364594154",
"983800908040300009940",
"a0b0000c00a0a0ba0dac0",
"dabe0afe0cbab00f0cgeb",
"efffeegfefgeeeeffefef",
"ffffhhhffhfffhfffifff",
"hhjjkljifiiihihjhlihm",
"nllhjojnipjiljhqiioqq",
"ooloooooooolqoolqpooo"};
