/* XPM */
static char * stickufcs_xpm[] = {
"21 21 79 1",
" 	c #F9F9F6",
".	c #FAF9F5",
"+	c #FAF9F6",
"@	c #F9F9F5",
"#	c #F9FAF6",
"$	c #FAF9F7",
"%	c #FAFAF6",
"&	c #FAFAF7",
"*	c #FBFAF8",
"=	c #FAFAF8",
"-	c #FAF9F8",
";	c #FBFAF7",
">	c #FBFBF7",
",	c #FAFBF8",
"'	c #FBFBF8",
")	c #FBFBF9",
"!	c #FAFBF9",
"~	c #FBFAF9",
"{	c #FCFBF8",
"]	c #FCFAF8",
"^	c #FCFBF9",
"/	c #FBFCF9",
"(	c #FCFCF9",
"_	c #FBFBFA",
":	c #FBFCFA",
"<	c #FCFBFA",
"[	c #E1E2E1",
"}	c #A3A3A2",
"|	c #E1E1E0",
"1	c #E2E1E0",
"2	c #959594",
"3	c #878786",
"4	c #848483",
"5	c #939391",
"6	c #E2E2E0",
"7	c #FCFCFA",
"8	c #939392",
"9	c #FDFDFB",
"0	c #FDFBFA",
"a	c #FDFCFA",
"b	c #FCFCFB",
"c	c #E2E2E1",
"d	c #545454",
"e	c #FDFCFB",
"f	c #848484",
"g	c #FCFDFB",
"h	c #858584",
"i	c #FDFDFA",
"j	c #848584",
"k	c #858484",
"l	c #888887",
"m	c #969595",
"n	c #E2E3E2",
"o	c #FDFCFC",
"p	c #FCFDFC",
"q	c #FDFDFC",
"r	c #949493",
"s	c #A4A4A3",
"t	c #FEFDFC",
"u	c #FDFEFC",
"v	c #E3E3E2",
"w	c #858585",
"x	c #969695",
"y	c #E4E3E2",
"z	c #FEFEFC",
"A	c #FDFDFD",
"B	c #FEFDFD",
"C	c #FEFEFD",
"D	c #FDFEFD",
"E	c #FEFEFE",
"F	c #FFFEFE",
"G	c #FEFFFE",
"H	c #FEFFFD",
"I	c #FFFFFE",
"J	c #FFFEFD",
"K	c #FEFEFF",
"L	c #FFFFFF",
"M	c #FFFEFF",
"N	c #FEFFFF",
"  .+ + +@ +    +   + ",
"#$+%& +$$#+%+%++%#+%%",
"$%&%$&&$$%&&%&&+&$&$$",
"&&&&*&=&&-;*&&==&;&&&",
";>,'*;=,'*;>;=='='*=*",
"*'*')*!,~''*'='***'*'",
")))'*~{)~*'']*)*'){''",
"^^)/^^))()^/))^)^)_)_",
":^^<_[}|/1234456^7^^^",
"7:<7<8987}999998<777<",
"0aabb494bc234d94b7b7e",
"7bb9bf9fgabebh9h7ieea",
"bb99ej9dklmnej9jo9bg9",
"opepqr99999ser9rqoo9q",
"tquqqvrwhlxvtvsyqztAq",
"ztuBqtCBqAutuqqCqADBu",
"BCCCBBDCBCDBBBBCCBCBC",
"CCCCEEECCECCCECCCFCCC",
"EEGGHIGFCFFFEFEGEIFEJ",
"KIIEGLGKFMGFIGENFFLNN",
"LLILLLLLLLLINLLINMLLL"};
