/* XPM */
static char * stuckufcs_xpm[] = {
"21 21 71 1",
" 	c #F9F9F6",
".	c #FAF9F5",
"+	c #FAF9F6",
"@	c #F9F9F5",
"#	c #F9FAF6",
"$	c #FAF9F7",
"%	c #FAFAF6",
"&	c #FAFAF7",
"*	c #FBFAF8",
"=	c #FAFAF8",
"-	c #FAF9F8",
";	c #FBFAF7",
">	c #FBFBF7",
",	c #FAFBF8",
"'	c #FBFBF8",
")	c #FBFBF9",
"!	c #FAFBF9",
"~	c #FBFAF9",
"{	c #FCFBF8",
"]	c #FCFAF8",
"^	c #FCFBF9",
"/	c #FBFCF9",
"(	c #FCFCF9",
"_	c #FBFBFA",
":	c #FBFCFA",
"<	c #FCFBFA",
"[	c #FCFCFA",
"}	c #E1E1E0",
"|	c #939391",
"1	c #848483",
"2	c #939392",
"3	c #E2E2E1",
"4	c #FDFDFB",
"5	c #FDFBFA",
"6	c #FDFCFA",
"7	c #FCFCFB",
"8	c #545453",
"9	c #828281",
"0	c #848484",
"a	c #FDFCFB",
"b	c #838281",
"c	c #F4F4F3",
"d	c #838282",
"e	c #858584",
"f	c #FDFDFA",
"g	c #FCFDFB",
"h	c #545454",
"i	c #848584",
"j	c #FDFCFC",
"k	c #FCFDFC",
"l	c #FDFDFC",
"m	c #949493",
"n	c #FEFDFC",
"o	c #FDFEFC",
"p	c #E3E3E3",
"q	c #E3E3E2",
"r	c #FEFEFC",
"s	c #FDFDFD",
"t	c #FEFDFD",
"u	c #FEFEFD",
"v	c #FDFEFD",
"w	c #FEFEFE",
"x	c #FFFEFE",
"y	c #FEFFFE",
"z	c #FEFFFD",
"A	c #FFFFFE",
"B	c #FFFEFD",
"C	c #FEFEFF",
"D	c #FFFFFF",
"E	c #FFFEFF",
"F	c #FEFFFF",
"  .+ + +@ +    +   + ",
"#$+%& +$$#+%+%++%#+%%",
"$%&%$&&$$%&&%&&+&$&$$",
"&&&&*&=&&-;*&&==&;&&&",
";>,'*;=,'*;>;=='='*=*",
"*'*')*!,~''*'='***'*'",
")))'*~{)~*'']*)*'){''",
"^^)/^^))()^/))^)^)_)_",
":^^<_:[}|11123)(^[^^^",
"[:<[<[[2444442<[<[[[<",
"56677[[14898407[7[7[a",
"[77477a04bcd4e44[faa6",
"7744agge4hdh4i4gj47g4",
"jkaklljm44444mllljj4l",
"nlollllpmeeemqonlrnsl",
"rnotlnutlsonollulsvto",
"tuuuttvutuvttttuututu",
"uuuuwwwuuwuuuwuuuxuuu",
"wwyyzAyxuxxxwxwywAxwB",
"CAAwyDyCxEyxAywFxxDFF",
"DDADDDDDDDDAFDDAFEDDD"};
