/* XPM */
static char * tbarufcs_xpm[] = {
"21 21 54 1",
" 	c #F9F9F6",
".	c #FAF9F5",
"+	c #FAF9F6",
"@	c #F9F9F5",
"#	c #F9FAF6",
"$	c #FAF9F7",
"%	c #FAFAF6",
"&	c #FAFAF7",
"*	c #FBFAF8",
"=	c #FAFAF8",
"-	c #FAF9F8",
";	c #FBFAF7",
">	c #FBFBF7",
",	c #FAFBF8",
"'	c #FBFBF8",
")	c #FBFBF9",
"!	c #FAFBF9",
"~	c #FBFAF9",
"{	c #FCFBF8",
"]	c #FCFAF8",
"^	c #FCFBF9",
"/	c #FBFCF9",
"(	c #FCFCF9",
"_	c #FBFBFA",
":	c #FBFCFA",
"<	c #FCFBFA",
"[	c #FCFCFA",
"}	c #FDFBFA",
"|	c #FDFCFA",
"1	c #FCFCFB",
"2	c #FDFCFB",
"3	c #FDFDFB",
"4	c #FCFDFB",
"5	c #FDFDFA",
"6	c #FDFCFC",
"7	c #FCFDFC",
"8	c #FDFDFC",
"9	c #FEFDFC",
"0	c #FDFEFC",
"a	c #FDFDFD",
"b	c #FEFEFC",
"c	c #FEFDFD",
"d	c #FEFEFD",
"e	c #FDFEFD",
"f	c #FEFEFE",
"g	c #FFFEFE",
"h	c #FEFFFE",
"i	c #FEFFFD",
"j	c #FFFFFE",
"k	c #FFFEFD",
"l	c #FEFEFF",
"m	c #FFFFFF",
"n	c #FFFEFF",
"o	c #FEFFFF",
"  .+ + +@ +    +   + ",
"#$+%& +$$#+%+%++%#+%%",
"$%&%$&&$$%&&%&&+&$&$$",
"&&&&*&=&&-;*&&==&;&&&",
";>,'*;=,'*;>;=='='*=*",
"*'*')*!,~''*'='***'*'",
")))'*~{)~*'']*)*'){''",
"^^)/^^))()^/))^)^)_)_",
":^^<_:[)/^::<[)(^[^^^",
"[:<[<[[[[[[<[<<[<[[[<",
"}||11[[[1[[[[11[1[1[2",
"[11311214|121333[522|",
"113324436327243463143",
"672788687838288886638",
"9808888a889898098b9a8",
"b90c89dc8a09088d8aec0",
"cdddccedcdeccccddcdcd",
"ddddfffddfdddfdddgddd",
"ffhhijhgdgggfgfhfjgfk",
"ljjfhmhlgnhgjhfoggmoo",
"mmjmmmmmmmmjommjonmmm"};
